<svg width="278.4px" height="278.4px">
<path d="M33.6 2.84217e-14 L254.4 2.84217e-14 C267.655 5.68434e-14, 278.4 10.7452, 278.4 24 L278.4 244.8 C278.4 258.055, 267.655 268.8, 254.4 268.8 L33.6 268.8 C20.3452 268.8, 9.6 258.055, 9.6 244.8 L9.6 24 C9.6 10.7452, 20.3452 5.68434e-14, 33.6 5.68434e-14 Z " stroke="black" stroke-width="1" fill="none" />

<path d="M161.582 167.903 L98.0605 167.903 L93.1514 182.333 L92.7423 183.549 L92.348 184.758 L91.9687 185.959 L91.6042 187.153 L91.2546 188.339 L90.9199 189.518 L90.6001 190.69 L90.2951 191.854 L90.0051 193.011 L89.7298 194.16 L89.4755 195.298 L89.2479 196.451 L89.047 197.618 L88.873 198.801 L88.7257 199.999 L88.6052 201.211 L88.5115 202.438 L88.4445 203.68 L88.4044 204.937 L88.391 206.209 L88.5457 209.06 L89.0098 211.633 L89.7834 213.928 L90.8664 215.944 L92.2588 217.683 L93.9606 219.143 L95.9719 220.325 L98.2925 221.228 L100.923 221.854 L103.862 222.201 L103.862 232.019 L40.3411 232.019 L40.3411 222.201 L41.4286 222.055 L42.4892 221.856 L43.5231 221.603 L44.5302 221.297 L45.5106 220.937 L46.4641 220.523 L47.3909 220.056 L48.2909 219.535 L49.1641 218.961 L50.0106 218.333 L50.8362 217.655 L51.647 216.929 L52.4428 216.156 L53.2238 215.334 L53.99 214.466 L54.7412 213.549 L55.4776 212.585 L56.1991 211.574 L56.9057 210.515 L57.5974 209.408 L58.2862 208.214 L58.9839 206.923 L59.6905 205.536 L60.406 204.052 L61.1305 202.472 L61.8639 200.794 L62.6062 199.021 L63.3575 197.15 L64.1176 195.182 L64.8867 193.118 L126.92 27.324 L166.639 27.324 L215.731 194.457 L216.375 196.625 L216.998 198.664 L217.601 200.576 L218.182 202.359 L218.743 204.015 L219.283 205.543 L219.802 206.943 L220.301 208.215 L220.778 209.359 L221.235 210.375 L221.694 211.294 L222.181 212.178 L222.694 213.026 L223.234 213.838 L223.801 214.614 L224.394 215.355 L225.015 216.06 L225.662 216.73 L226.336 217.364 L227.036 217.962 L227.779 218.526 L228.578 219.059 L229.433 219.561 L230.345 220.032 L231.313 220.472 L232.338 220.88 L233.42 221.257 L234.558 221.603 L235.752 221.918 L237.003 222.201 L237.003 232.019 L154.887 232.019 L154.887 222.201 L156.394 221.997 L157.821 221.74 L159.167 221.431 L160.433 221.071 L161.619 220.658 L162.724 220.193 L163.749 219.676 L164.694 219.107 L165.558 218.486 L166.342 217.813 L167.048 217.085 L167.681 216.298 L168.239 215.454 L168.722 214.552 L169.131 213.592 L169.466 212.573 L169.726 211.497 L169.912 210.363 L170.024 209.17 L170.061 207.92 L170.051 206.958 L170.019 205.977 L169.967 204.977 L169.894 203.957 L169.801 202.918 L169.686 201.86 L169.551 200.782 L169.394 199.685 L169.217 198.568 L169.02 197.432 L168.798 196.242 L168.55 194.99 L168.274 193.677 L167.972 192.303 L167.644 190.868 L167.288 189.373 L166.906 187.816 L166.497 186.198 L166.061 184.519 L165.598 182.78 L161.582 167.903 Z " stroke="black" stroke-width="1" fill="none" />
<path d="M103.713 151.093 L157.267 151.093 L133.466 67.4895 L103.713 151.093 Z " stroke="black" stroke-width="1" fill="none" />


</svg>
