<svg width="470.4px" height="278.4px">
<circle cx="388.701" cy="129.79" r="67.2" stroke="black" stroke-width="1" fill="none" />


<path d="M164.61 188.648 L165.876 190.072 L167.229 191.528 L168.616 192.949 L170.037 194.336 L171.492 195.689 L172.978 197.008 L174.497 198.293 L176.043 199.54 L177.623 200.75 L179.233 201.921 L180.869 203.059 L182.536 204.155 L184.229 205.213 L185.949 206.23 L187.695 207.205 L189.468 208.139 L191.267 209.034 L193.089 209.885 L194.933 210.69 L196.804 211.453 L198.694 212.175 L200.606 212.848 L202.541 213.475 L204.495 214.057 L206.468 214.59 L208.464 215.078 L210.474 215.516 L212.504 215.906 L214.552 216.246 L216.616 216.533 L218.695 216.771 L220.792 216.956 L222.901 217.089 L225.026 217.172 L227.161 217.198 L229.3 217.172 L231.424 217.089 L233.533 216.956 L235.627 216.771 L237.706 216.533 L239.769 216.246 L241.818 215.906 L243.848 215.516 L245.862 215.078 L247.854 214.59 L249.827 214.057 L251.785 213.475 L253.716 212.848 L255.628 212.175 L257.522 211.453 L259.389 210.69 L261.237 209.885 L263.059 209.034 L264.854 208.139 L266.627 207.205 L268.373 206.23 L270.096 205.213 L271.79 204.155 L273.453 203.059 L275.093 201.921 L276.699 200.75 L278.279 199.54 L279.829 198.293 L281.344 197.008 L282.833 195.689 L284.285 194.336 L285.706 192.949 L287.097 191.528 L288.45 190.072 L289.769 188.587 L291.05 187.068 L292.297 185.518 L293.511 183.942 L294.682 182.332 L295.816 180.695 L296.916 179.029 L297.97 177.335 L298.987 175.616 L299.966 173.866 L300.9 172.093 L301.795 170.298 L302.646 168.476 L303.451 166.628 L304.214 164.761 L304.932 162.871 L305.609 160.959 L306.236 159.024 L306.818 157.07 L307.351 155.093 L307.839 153.101 L308.277 151.087 L308.666 149.057 L309.003 147.012 L309.294 144.949 L309.532 142.866 L309.717 140.772 L309.849 138.663 L309.933 136.539 L309.959 134.404 L309.933 132.265 L309.849 130.14 L309.717 128.031 L309.532 125.938 L309.294 123.855 L309.003 121.791 L308.666 119.747 L308.277 117.717 L307.839 115.703 L307.351 113.711 L306.818 111.734 L306.236 109.78 L305.609 107.845 L304.932 105.933 L304.214 104.043 L303.451 102.176 L302.646 100.328 L301.795 98.5058 L300.9 96.7106 L299.966 94.938 L298.987 93.188 L297.97 91.4683 L296.916 89.7751 L295.816 88.1083 L294.682 86.4718 L293.511 84.8617 L292.297 83.2857 L291.05 81.7361 L289.769 80.2167 L288.45 78.7313 L287.097 77.2762 L285.706 75.8551 L284.285 74.468 L282.833 73.115 L281.344 71.7959 L279.829 70.5109 L278.279 69.2636 L276.699 68.0542 L275.093 66.8825 L273.453 65.7449 L271.79 64.6488 L270.096 63.5906 L268.373 62.5739 L266.627 61.5987 L264.854 60.6652 L263.059 59.7694 L261.237 58.9191 L259.389 58.114 L257.522 57.3506 L255.628 56.6287 L253.716 55.9559 L251.785 55.3285 L249.827 54.7465 L247.854 54.2135 L245.862 53.726 L243.848 53.2876 L241.818 52.8983 L239.769 52.5581 L237.706 52.2709 L235.627 52.0328 L233.533 51.8476 L231.424 51.7153 L229.3 51.6321 L227.161 51.6057 L225.026 51.6321 L222.901 51.7153 L220.792 51.8476 L218.695 52.0328 L216.616 52.2709 L214.552 52.5581 L212.504 52.8983 L210.474 53.2876 L208.464 53.726 L206.468 54.2135 L204.495 54.7465 L202.541 55.3285 L200.606 55.9559 L198.694 56.6287 L196.804 57.3506 L194.933 58.114 L193.089 58.9191 L191.267 59.7694 L189.468 60.6652 L187.695 61.5987 L185.949 62.5739 L184.229 63.5906 L182.536 64.6488 L180.869 65.7449 L179.233 66.8825 L177.623 68.0542 L176.043 69.2636 L174.497 70.5109 L172.978 71.7959 L171.492 73.115 L170.037 74.468 L168.616 75.8551 L167.229 77.2762 L165.876 78.7313 L164.61 80.1562 L164.61 26.4 L68.6098 26.4 L68.6098 242.404 L164.61 242.404 L164.61 188.648 Z " stroke="black" stroke-width="1" fill="none" />

<circle cx="317.254" cy="43.858" r="38.4" stroke="black" stroke-width="1" fill="none" />


<path d="M33.6 2.84217e-14 L446.4 2.84217e-14 C452.765 5.68434e-14, 458.87 2.52856, 463.371 7.02944 C467.871 11.5303, 470.4 17.6348, 470.4 24 L470.4 244.8 C470.4 251.165, 467.871 257.27, 463.371 261.771 C458.87 266.271, 452.765 268.8, 446.4 268.8 L33.6 268.8 C27.2348 268.8, 21.1303 266.271, 16.6294 261.771 C12.1286 257.27, 9.6 251.165, 9.6 244.8 L9.6 24 C9.6 17.6348, 12.1286 11.5303, 16.6294 7.02944 C21.1303 2.52856, 27.2348 5.68434e-14, 33.6 5.68434e-14 Z " stroke="black" stroke-width="1" fill="none" />

</svg>
