<svg width="546.297px" height="542.128px">
<path d="M65.2157 177.996 L65.2157 169.458 L66.2797 169.272 L67.2984 169.073 L68.2718 168.863 L69.1999 168.641 L70.0828 168.407 L70.9204 168.162 L71.7127 167.906 L72.4597 167.637 L73.1615 167.357 L73.818 167.065 L74.4357 166.743 L75.021 166.398 L75.574 166.029 L76.0947 165.637 L76.583 165.222 L77.039 164.783 L77.4626 164.322 L77.854 163.837 L78.2129 163.328 L78.5396 162.797 L78.8384 162.226 L79.1139 161.627 L79.3661 161 L79.5951 160.344 L79.8008 159.66 L79.9832 158.947 L80.1423 158.206 L80.2781 157.436 L80.3907 156.638 L80.4799 155.811 L80.5536 154.937 L80.6196 154.021 L80.6778 153.064 L80.7283 152.065 L80.771 151.025 L80.8059 149.944 L80.8331 148.821 L80.8525 147.657 L80.8641 146.451 L80.868 145.204 L80.868 14.6174 L70.39 14.6174 L68.8739 14.6362 L67.4303 14.6924 L66.0591 14.7862 L64.7604 14.9175 L63.5341 15.0863 L62.3802 15.2927 L61.2988 15.5365 L60.2898 15.8178 L59.3532 16.1367 L58.4891 16.4931 L57.6722 16.8773 L56.8773 17.3055 L56.1044 17.7776 L55.3535 18.2937 L54.6246 18.8539 L53.9176 19.458 L53.2327 20.1061 L52.5697 20.7981 L51.9287 21.5342 L51.3098 22.3142 L50.7102 23.1304 L50.1274 24.001 L49.5615 24.9259 L49.0124 25.9051 L48.4801 26.9387 L47.9646 28.0266 L47.4659 29.1688 L46.9841 30.3654 L46.519 31.6163 L46.0708 32.9215 L45.6387 34.2468 L45.2222 35.5578 L44.8212 36.8546 L44.4357 38.1372 L44.0657 39.4056 L43.7113 40.6597 L43.3724 41.8996 L43.049 43.1252 L42.7411 44.3367 L42.4488 45.5339 L24.7268 45.5339 L24.7268 0 L176.981 0 L176.981 45.5339 L159.259 45.5339 L158.777 43.7837 L158.317 42.1292 L157.877 40.5704 L157.458 39.1074 L157.06 37.7401 L156.682 36.4685 L156.325 35.2926 L155.989 34.2125 L155.673 33.2281 L155.378 32.3394 L155.09 31.4986 L154.796 30.6836 L154.495 29.8945 L154.188 29.1313 L153.874 28.394 L153.554 27.6825 L153.227 26.9969 L152.894 26.3372 L152.555 25.7034 L152.209 25.0954 L151.857 24.5107 L151.502 23.9467 L151.143 23.4034 L150.781 22.8808 L150.414 22.3789 L150.043 21.8977 L149.669 21.4371 L149.29 20.9973 L148.908 20.5782 L148.522 20.1798 L148.131 19.7872 L147.736 19.4114 L147.335 19.0524 L146.928 18.7103 L146.517 18.385 L146.1 18.0764 L145.679 17.7847 L145.252 17.5098 L144.82 17.2518 L144.383 17.0105 L143.932 16.7712 L143.459 16.5448 L142.964 16.3314 L142.447 16.1309 L141.909 15.9433 L141.348 15.7687 L140.765 15.607 L140.16 15.4582 L139.534 15.3224 L138.885 15.1995 L138.205 15.0889 L137.485 14.99 L136.725 14.9026 L135.925 14.827 L135.085 14.7629 L134.205 14.7105 L133.284 14.6698 L132.324 14.6407 L131.323 14.6232 L130.283 14.6174 L120.969 14.6174 L120.969 145.204 L120.973 146.567 L120.984 147.864 L121.004 149.092 L121.031 150.254 L121.066 151.348 L121.109 152.376 L121.159 153.335 L121.217 154.228 L121.283 155.053 L121.357 155.811 L121.441 156.51 L121.538 157.182 L121.648 157.829 L121.771 158.45 L121.907 159.045 L122.055 159.614 L122.217 160.158 L122.392 160.675 L122.579 161.167 L122.78 161.632 L122.991 162.064 L123.212 162.478 L123.442 162.876 L123.68 163.257 L123.928 163.621 L124.185 163.969 L124.451 164.299 L124.725 164.613 L125.009 164.91 L125.302 165.19 L125.611 165.459 L125.944 165.725 L126.3 165.987 L126.679 166.245 L127.081 166.499 L127.507 166.75 L127.955 166.996 L128.428 167.239 L128.923 167.477 L129.442 167.712 L129.991 167.928 L130.578 168.134 L131.202 168.331 L131.863 168.519 L132.563 168.698 L133.299 168.869 L134.073 169.03 L134.885 169.182 L135.734 169.325 L136.621 169.458 L136.621 177.996 L65.2157 177.996 Z " stroke="black" stroke-width="1" fill="none" />
<path d="M314.1 156.329 L311.463 159.067 L308.832 161.64 L306.206 164.049 L303.586 166.294 L300.97 168.375 L298.36 170.292 L295.754 172.044 L293.154 173.632 L290.559 175.055 L287.97 176.314 L285.344 177.42 L282.64 178.41 L279.859 179.283 L277 180.04 L274.064 180.68 L271.05 181.204 L267.958 181.612 L264.789 181.903 L261.542 182.077 L258.217 182.136 L252.339 181.965 L246.759 181.455 L241.478 180.605 L236.496 179.414 L231.812 177.883 L227.428 176.012 L223.342 173.8 L219.555 171.249 L216.067 168.357 L212.877 165.125 L209.99 161.558 L207.406 157.661 L205.126 153.434 L203.15 148.878 L201.478 143.991 L200.11 138.775 L199.046 133.229 L198.286 127.353 L197.83 121.147 L197.678 114.611 L197.756 110.35 L197.991 106.208 L198.382 102.185 L198.93 98.2807 L199.634 94.4957 L200.495 90.8297 L201.513 87.2828 L202.687 83.8548 L204.017 80.5458 L205.504 77.3559 L207.135 74.3011 L208.896 71.3976 L210.788 68.6456 L212.81 66.0448 L214.963 63.5954 L217.247 61.2974 L219.662 59.1507 L222.207 57.1554 L224.882 55.3114 L227.689 53.6187 L230.607 52.0826 L233.619 50.7082 L236.723 49.4955 L239.921 48.4444 L243.212 47.5551 L246.596 46.8275 L250.073 46.2615 L253.643 45.8573 L257.307 45.6147 L261.063 45.5339 L263.388 45.563 L265.655 45.6503 L267.864 45.7958 L270.015 45.9996 L272.107 46.2615 L274.141 46.5817 L276.117 46.96 L278.035 47.3966 L279.894 47.8914 L281.696 48.4444 L283.443 49.0362 L285.139 49.6733 L286.785 50.3557 L288.381 51.0833 L289.926 51.8562 L291.421 52.6744 L292.865 53.5379 L294.259 54.4466 L295.602 55.4006 L296.895 56.3999 L298.141 57.4432 L299.343 58.5291 L300.5 59.6578 L301.614 60.8291 L302.684 62.0431 L303.71 63.2999 L304.692 64.5992 L305.629 65.9413 L306.523 67.3261 L307.373 68.7536 L308.332 70.4986 L309.241 72.2928 L310.101 74.1361 L310.912 76.0286 L311.674 77.9703 L312.387 79.9611 L313.051 82.0011 L313.665 84.0902 L314.23 86.2285 L314.747 88.4159 L315.239 90.7398 L315.683 93.1582 L316.078 95.6709 L316.423 98.2781 L316.719 100.98 L316.966 103.776 L317.164 106.666 L317.313 109.651 L317.413 112.731 L317.463 115.904 L235.45 115.904 L235.557 120.464 L235.825 124.776 L236.256 128.841 L236.847 132.659 L237.601 136.23 L238.516 139.554 L239.593 142.63 L240.832 145.46 L242.232 148.043 L243.794 150.378 L245.523 152.48 L247.424 154.36 L249.497 156.019 L251.742 157.457 L254.159 158.673 L256.748 159.669 L259.509 160.443 L262.442 160.996 L265.547 161.328 L268.825 161.438 L270.771 161.402 L272.679 161.293 L274.549 161.112 L276.379 160.859 L278.171 160.533 L279.923 160.134 L281.637 159.664 L283.313 159.12 L284.949 158.504 L286.547 157.816 L288.138 157.023 L289.755 156.119 L291.397 155.104 L293.066 153.977 L294.761 152.739 L296.481 151.39 L298.228 149.929 L300 148.358 L301.798 146.675 L303.622 144.881 L314.1 156.329 Z " stroke="black" stroke-width="1" fill="none" />
<path d="M279.173 103.486 L279.028 99.011 L278.801 94.77 L278.49 90.7631 L278.097 86.9904 L277.621 83.4518 L277.062 80.1474 L276.42 77.0771 L275.696 74.2409 L274.889 71.6389 L273.999 69.271 L273.011 67.1204 L271.908 65.1962 L270.693 63.4984 L269.363 62.027 L267.919 60.7819 L266.362 59.7632 L264.69 58.9709 L262.905 58.405 L261.006 58.0654 L258.993 57.9522 L257.042 58.0693 L255.172 58.4205 L253.384 59.0058 L251.677 59.8253 L250.052 60.8789 L248.508 62.1667 L247.045 63.6886 L245.664 65.4446 L244.365 67.4348 L243.147 69.6591 L242.017 72.1046 L240.982 74.7583 L240.041 77.6204 L239.194 80.6907 L238.442 83.9693 L237.784 87.4561 L237.221 91.1512 L236.752 95.0546 L236.377 99.1662 L236.097 103.486 L279.173 103.486 Z " stroke="black" stroke-width="1" fill="none" />
<path d="M354.459 144.881 L355.116 147.302 L355.846 149.599 L356.648 151.773 L357.523 153.822 L358.469 155.747 L359.489 157.547 L360.581 159.224 L361.745 160.776 L362.981 162.204 L364.291 163.508 L365.681 164.688 L367.162 165.743 L368.734 166.675 L370.396 167.482 L372.149 168.165 L373.992 168.724 L375.926 169.158 L377.951 169.469 L380.066 169.655 L382.271 169.717 L384.164 169.671 L385.963 169.531 L387.667 169.298 L389.277 168.972 L390.793 168.553 L392.214 168.041 L393.54 167.435 L394.772 166.737 L395.91 165.945 L396.953 165.06 L397.9 164.074 L398.746 163.004 L399.493 161.849 L400.141 160.61 L400.689 159.288 L401.137 157.881 L401.485 156.39 L401.734 154.815 L401.884 153.156 L401.934 151.413 L401.911 150.304 L401.843 149.227 L401.73 148.182 L401.571 147.17 L401.368 146.19 L401.119 145.243 L400.824 144.328 L400.485 143.445 L400.1 142.594 L399.67 141.776 L399.187 140.978 L398.645 140.187 L398.044 139.405 L397.383 138.63 L396.662 137.863 L395.882 137.104 L395.043 136.352 L394.144 135.608 L393.185 134.872 L392.167 134.144 L391.045 133.396 L389.774 132.602 L388.354 131.761 L386.786 130.874 L385.069 129.94 L383.203 128.959 L381.188 127.932 L379.024 126.858 L376.712 125.738 L374.251 124.571 L372.837 123.919 L371.439 123.255 L370.058 122.579 L368.694 121.891 L367.347 121.192 L366.016 120.481 L364.703 119.759 L363.406 119.025 L362.126 118.279 L360.863 117.521 L359.624 116.736 L358.418 115.93 L357.244 115.106 L356.102 114.262 L354.993 113.398 L353.916 112.515 L352.871 111.613 L351.859 110.691 L350.879 109.75 L349.932 108.79 L349.02 107.796 L348.147 106.78 L347.312 105.741 L346.517 104.681 L345.76 103.599 L345.042 102.495 L344.363 101.369 L343.723 100.221 L343.121 99.0511 L342.558 97.859 L342.042 96.6431 L341.58 95.4012 L341.173 94.1335 L340.82 92.84 L340.521 91.5205 L340.277 90.1752 L340.086 88.804 L339.951 87.4069 L339.869 85.984 L339.842 84.5352 L339.909 82.1615 L340.111 79.8524 L340.447 77.6081 L340.918 75.4284 L341.524 73.3134 L342.263 71.2631 L343.138 69.2775 L344.147 67.3565 L345.29 65.5002 L346.569 63.7086 L347.971 61.9785 L349.489 60.3324 L351.123 58.7704 L352.871 57.2925 L354.734 55.8987 L356.713 54.5889 L358.806 53.3632 L361.015 52.2217 L363.339 51.1642 L365.778 50.1908 L368.31 49.306 L370.914 48.5143 L373.588 47.8157 L376.334 47.2103 L379.15 46.6981 L382.038 46.279 L384.997 45.953 L388.028 45.7202 L391.129 45.5804 L394.301 45.5339 L396.186 45.5416 L398.063 45.5649 L399.932 45.6037 L401.794 45.6581 L403.648 45.7279 L405.493 45.8133 L407.332 45.9142 L409.162 46.0306 L410.985 46.1626 L412.8 46.31 L414.664 46.4704 L416.634 46.667 L418.71 46.8999 L420.892 47.169 L423.181 47.4742 L425.575 47.8157 L428.075 48.1935 L430.682 48.6074 L433.395 49.0576 L436.213 49.544 L436.213 78.6494 L419.138 78.6494 L418.537 77.0441 L417.925 75.5138 L417.301 74.0585 L416.665 72.6783 L416.017 71.3731 L415.358 70.1429 L414.688 68.9877 L414.005 67.9076 L413.311 66.9025 L412.606 65.9724 L411.887 65.0947 L411.154 64.2726 L410.407 63.5062 L409.646 62.7954 L408.87 62.1402 L408.081 61.5406 L407.277 60.9966 L406.459 60.5083 L405.626 60.0756 L404.779 59.6985 L403.909 59.3667 L403.005 59.0699 L402.067 58.8079 L401.095 58.5809 L400.09 58.3888 L399.051 58.2316 L397.979 58.1094 L396.873 58.0221 L395.733 57.9697 L394.56 57.9522 L392.888 57.9943 L391.285 58.1204 L389.752 58.3306 L388.289 58.6249 L386.896 59.0032 L385.572 59.4657 L384.319 60.0122 L383.135 60.6428 L382.022 61.3575 L380.978 62.1563 L380.019 63.0308 L379.161 63.9725 L378.405 64.9815 L377.749 66.0578 L377.194 67.2013 L376.74 68.4121 L376.387 69.6901 L376.134 71.0354 L375.983 72.448 L375.933 73.9279 L375.951 74.986 L376.005 76.0131 L376.096 77.0092 L376.222 77.9742 L376.385 78.9081 L376.585 79.8111 L376.82 80.6829 L377.092 81.5238 L377.4 82.3335 L377.744 83.1123 L378.134 83.8612 L378.582 84.6076 L379.086 85.3514 L379.648 86.0927 L380.266 86.8313 L380.941 87.5673 L381.674 88.3008 L382.463 89.0317 L383.309 89.76 L384.212 90.4856 L385.23 91.2217 L386.421 92.0069 L387.786 92.8412 L389.324 93.7248 L391.035 94.6574 L392.92 95.6393 L394.978 96.6702 L397.209 97.7504 L399.614 98.8797 L402.192 100.058 L404.579 101.098 L406.875 102.146 L409.081 103.203 L411.196 104.27 L413.22 105.346 L415.154 106.43 L416.997 107.524 L418.75 108.627 L420.412 109.739 L421.984 110.859 L423.474 112.002 L424.892 113.18 L426.237 114.393 L427.51 115.641 L428.711 116.923 L429.839 118.241 L430.894 119.593 L431.877 120.98 L432.788 122.403 L433.626 123.86 L434.388 125.346 L435.07 126.882 L435.671 128.466 L436.193 130.1 L436.634 131.783 L436.995 133.515 L437.275 135.296 L437.476 137.127 L437.596 139.006 L437.636 140.935 L437.597 143.053 L437.481 145.111 L437.287 147.109 L437.015 149.048 L436.666 150.928 L436.239 152.748 L435.735 154.509 L435.153 156.21 L434.493 157.851 L433.756 159.433 L432.948 160.958 L432.079 162.429 L431.148 163.846 L430.154 165.208 L429.099 166.516 L427.981 167.769 L426.801 168.968 L425.559 170.113 L424.256 171.204 L422.89 172.24 L421.465 173.21 L419.984 174.131 L418.448 175.001 L416.856 175.82 L415.209 176.589 L413.506 177.308 L411.747 177.976 L409.933 178.594 L408.063 179.161 L406.138 179.678 L404.164 180.145 L402.151 180.563 L400.097 180.931 L398.004 181.251 L395.87 181.521 L393.696 181.742 L391.482 181.914 L389.228 182.037 L386.934 182.111 L384.6 182.136 L380.283 182.074 L375.871 181.89 L371.362 181.583 L366.759 181.152 L362.059 180.599 L357.264 179.924 L352.373 179.125 L347.386 178.203 L342.304 177.158 L337.125 175.991 L337.125 144.881 L354.459 144.881 Z " stroke="black" stroke-width="1" fill="none" />
<path d="M546.297 164.219 L544.041 166.14 L541.826 167.942 L539.653 169.627 L537.521 171.194 L535.431 172.644 L533.382 173.976 L531.374 175.19 L529.408 176.286 L527.483 177.265 L525.599 178.125 L523.726 178.887 L521.833 179.569 L519.918 180.171 L517.983 180.692 L516.027 181.133 L514.05 181.494 L512.053 181.775 L510.035 181.975 L507.996 182.095 L505.937 182.136 L502.18 182.03 L498.618 181.714 L495.252 181.187 L492.08 180.449 L489.104 179.5 L486.324 178.34 L483.739 176.97 L481.349 175.388 L479.154 173.596 L477.155 171.593 L475.349 169.363 L473.732 166.918 L472.306 164.256 L471.07 161.379 L470.024 158.285 L469.168 154.976 L468.503 151.45 L468.028 147.708 L467.742 143.751 L467.647 139.577 L467.647 66.2311 L451.478 66.2311 L451.478 57.3054 L453.014 57.0208 L454.468 56.7104 L455.839 56.374 L457.128 56.0118 L458.333 55.6238 L459.456 55.2098 L460.496 54.77 L461.454 54.3043 L462.328 53.8128 L463.12 53.2953 L463.853 52.7469 L464.553 52.1622 L465.219 51.5412 L465.852 50.8841 L466.451 50.1908 L467.016 49.4612 L467.548 48.6954 L468.046 47.8934 L468.51 47.0551 L468.941 46.1807 L469.346 45.2609 L469.735 44.2869 L470.107 43.2585 L470.462 42.1757 L470.8 41.0387 L471.122 39.8473 L471.426 38.6016 L471.714 37.3016 L471.985 35.9472 L472.239 34.5385 L472.479 33.0664 L472.708 31.5219 L472.924 29.9049 L473.129 28.2155 L473.323 26.4536 L473.505 24.6193 L473.675 22.7126 L473.833 20.7334 L473.98 18.6818 L474.115 16.5578 L505.032 16.5578 L505.032 49.6733 L541.899 49.6733 L541.899 66.2311 L505.032 66.2311 L505.032 125.606 L505.045 128.504 L505.086 131.246 L505.154 133.833 L505.249 136.265 L505.371 138.542 L505.521 140.663 L505.697 142.63 L505.901 144.441 L506.132 146.096 L506.39 147.597 L506.68 148.982 L507.008 150.293 L507.374 151.528 L507.777 152.689 L508.217 153.774 L508.695 154.784 L509.21 155.719 L509.763 156.58 L510.354 157.365 L510.982 158.075 L511.644 158.714 L512.338 159.286 L513.062 159.79 L513.818 160.228 L514.604 160.597 L515.422 160.9 L516.27 161.136 L517.15 161.304 L518.06 161.405 L519.002 161.438 L519.719 161.432 L520.42 161.412 L521.106 161.38 L521.776 161.335 L522.43 161.277 L523.069 161.205 L523.693 161.121 L524.301 161.024 L524.893 160.914 L525.47 160.792 L526.043 160.638 L526.621 160.463 L527.207 160.266 L527.799 160.046 L528.397 159.805 L529.002 159.542 L529.613 159.257 L530.23 158.949 L530.855 158.62 L531.485 158.269 L532.122 157.892 L532.766 157.485 L533.416 157.049 L534.072 156.582 L534.735 156.086 L535.405 155.56 L536.081 155.005 L536.763 154.419 L537.452 153.804 L538.147 153.159 L546.297 164.219 Z " stroke="black" stroke-width="1" fill="none" />


<path d="M65.2411 479.353 L65.4999 480.492 L65.7912 481.572 L66.115 482.593 L66.4713 483.555 L66.8601 484.458 L67.2814 485.302 L67.7352 486.086 L68.2215 486.811 L68.7403 487.477 L69.2916 488.084 L69.8856 488.628 L70.5325 489.115 L71.2322 489.544 L71.9848 489.916 L72.7903 490.231 L73.6487 490.488 L74.5599 490.689 L75.5241 490.832 L76.541 490.918 L77.6109 490.946 L78.1775 490.936 L78.7324 490.906 L79.2757 490.855 L79.8074 490.783 L80.3274 490.692 L80.8358 490.58 L81.3325 490.447 L81.8176 490.294 L82.2911 490.121 L82.7529 489.928 L83.1999 489.707 L83.629 489.461 L84.0401 489.19 L84.4332 488.895 L84.8085 488.575 L85.1657 488.231 L85.505 487.861 L85.8264 487.467 L86.1298 487.048 L86.4153 486.605 L86.678 486.132 L86.913 485.637 L87.1204 485.12 L87.3001 484.579 L87.4522 484.016 L87.5766 483.429 L87.6734 482.82 L87.7425 482.188 L87.784 481.534 L87.7978 480.856 L87.7867 480.225 L87.7532 479.611 L87.6974 479.014 L87.6193 478.435 L87.5189 477.873 L87.3962 477.329 L87.2511 476.802 L87.0838 476.293 L86.8941 475.801 L86.6821 475.326 L86.4454 474.858 L86.1815 474.395 L85.8904 473.937 L85.5722 473.483 L85.2268 473.034 L84.8543 472.59 L84.4546 472.151 L84.0277 471.717 L83.5737 471.288 L83.0924 470.864 L82.5782 470.439 L82.0252 470.009 L81.4334 469.573 L80.8028 469.133 L80.1334 468.687 L79.4252 468.235 L78.6781 467.779 L77.8923 467.317 L77.0676 466.849 L76.2041 466.376 L75.4547 465.987 L74.7198 465.595 L73.9994 465.201 L73.2936 464.805 L72.6023 464.406 L71.9256 464.004 L71.2635 463.6 L70.6159 463.194 L69.9829 462.786 L69.3644 462.374 L68.7621 461.953 L68.1778 461.524 L67.6115 461.086 L67.0631 460.64 L66.5326 460.185 L66.0201 459.723 L65.5256 459.252 L65.049 458.773 L64.5903 458.286 L64.1496 457.79 L63.7276 457.281 L63.325 456.764 L62.9418 456.238 L62.5779 455.702 L62.2335 455.159 L61.9085 454.606 L61.6029 454.045 L61.3167 453.475 L61.0499 452.896 L60.8025 452.309 L60.5767 451.705 L60.3747 451.086 L60.1964 450.453 L60.0419 449.806 L59.9112 449.144 L59.8042 448.467 L59.721 447.776 L59.6616 447.07 L59.6259 446.349 L59.614 445.615 L59.6436 444.411 L59.7324 443.244 L59.8804 442.115 L60.0875 441.024 L60.3538 439.969 L60.6793 438.952 L61.064 437.973 L61.5078 437.03 L62.0109 436.125 L62.5731 435.258 L63.1913 434.425 L63.8625 433.633 L64.5865 432.882 L65.3633 432.173 L66.1931 431.504 L67.0757 430.877 L68.0112 430.292 L68.9996 429.747 L70.0408 429.244 L71.1349 428.782 L72.2732 428.363 L73.4469 427.987 L74.656 427.656 L75.9005 427.369 L77.1804 427.126 L78.4957 426.928 L79.8465 426.773 L81.2326 426.663 L82.6542 426.597 L84.1111 426.575 L84.9707 426.579 L85.8225 426.593 L86.6666 426.616 L87.5029 426.648 L88.3314 426.69 L89.1522 426.741 L89.9652 426.801 L90.7705 426.87 L91.568 426.948 L92.3577 427.036 L93.1547 427.13 L93.974 427.237 L94.8156 427.359 L95.6796 427.493 L96.5658 427.642 L97.4744 427.804 L98.4053 427.98 L99.3585 428.169 L100.334 428.371 L101.332 428.588 L101.332 442.098 L94.6861 442.098 L94.4967 441.38 L94.2971 440.693 L94.0873 440.035 L93.8673 439.408 L93.6371 438.811 L93.3967 438.244 L93.1462 437.707 L92.8855 437.2 L92.6145 436.723 L92.3334 436.277 L92.0402 435.852 L91.7329 435.45 L91.4115 435.072 L91.0761 434.716 L90.7266 434.385 L90.363 434.076 L89.9853 433.791 L89.5936 433.529 L89.1879 433.29 L88.768 433.075 L88.33 432.881 L87.8696 432.708 L87.387 432.555 L86.882 432.423 L86.3547 432.311 L85.8051 432.219 L85.2331 432.148 L84.6389 432.097 L84.0224 432.066 L83.3835 432.056 L82.8363 432.066 L82.3008 432.097 L81.7769 432.148 L81.2646 432.219 L80.764 432.311 L80.275 432.423 L79.7977 432.555 L79.332 432.708 L78.878 432.881 L78.4356 433.075 L78.0082 433.289 L77.5993 433.522 L77.2088 433.776 L76.8367 434.049 L76.4831 434.342 L76.1479 434.655 L75.8311 434.988 L75.5328 435.341 L75.2529 435.714 L74.9914 436.107 L74.7518 436.513 L74.5374 436.937 L74.3482 437.379 L74.1842 437.838 L74.0455 438.314 L73.932 438.808 L73.8437 439.319 L73.7806 439.848 L73.7428 440.394 L73.7302 440.958 L73.7411 441.537 L73.7738 442.101 L73.8284 442.649 L73.9048 443.181 L74.003 443.698 L74.1231 444.2 L74.265 444.686 L74.4287 445.157 L74.6143 445.612 L74.8216 446.051 L75.0547 446.482 L75.3174 446.911 L75.6097 447.338 L75.9315 447.763 L76.283 448.186 L76.664 448.607 L77.0746 449.026 L77.5149 449.443 L77.9847 449.858 L78.4841 450.271 L79.0216 450.69 L79.6056 451.119 L80.2362 451.561 L80.9134 452.014 L81.6372 452.479 L82.4075 452.955 L83.2244 453.443 L84.0878 453.943 L84.9979 454.454 L85.9545 454.977 L87.1223 455.616 L88.2393 456.253 L89.3052 456.887 L90.3203 457.519 L91.2844 458.148 L92.1976 458.775 L93.0598 459.4 L93.8712 460.022 L94.6315 460.641 L95.341 461.259 L96.007 461.88 L96.6372 462.512 L97.2314 463.155 L97.7897 463.808 L98.3122 464.472 L98.7987 465.147 L99.2494 465.833 L99.6641 466.529 L100.043 467.236 L100.386 467.953 L100.695 468.688 L100.971 469.446 L101.215 470.228 L101.426 471.034 L101.605 471.864 L101.751 472.718 L101.865 473.595 L101.946 474.496 L101.995 475.421 L102.011 476.369 L101.983 477.585 L101.9 478.769 L101.762 479.919 L101.569 481.038 L101.32 482.124 L101.016 483.177 L100.656 484.198 L100.241 485.186 L99.7713 486.142 L99.246 487.066 L98.6677 487.947 L98.0391 488.787 L97.3599 489.585 L96.6304 490.341 L95.8503 491.055 L95.0199 491.728 L94.1389 492.359 L93.2076 492.949 L92.2257 493.496 L91.1935 494.002 L90.1195 494.463 L89.0125 494.876 L87.8725 495.239 L86.6996 495.555 L85.4936 495.821 L84.2547 496.04 L82.9828 496.21 L81.6779 496.331 L80.34 496.404 L78.9692 496.428 L77.9755 496.422 L76.9735 496.405 L75.9633 496.378 L74.9449 496.339 L73.9182 496.288 L72.8832 496.227 L71.84 496.154 L70.7886 496.071 L69.7289 495.976 L68.661 495.87 L67.5955 495.753 L66.5431 495.626 L65.5038 495.489 L64.4776 495.342 L63.4644 495.185 L62.4644 495.017 L61.4775 494.839 L60.5037 494.651 L59.543 494.453 L58.5953 494.245 L58.5953 479.353 L65.2411 479.353 Z " stroke="black" stroke-width="1" fill="none" />
<path d="M127.963 452.721 L128.545 452.867 L129.42 452.052 L130.276 451.287 L131.115 450.572 L131.937 449.906 L132.742 449.289 L133.528 448.722 L134.298 448.204 L135.05 447.736 L135.784 447.318 L136.501 446.949 L137.211 446.617 L137.923 446.32 L138.639 446.058 L139.357 445.831 L140.079 445.639 L140.803 445.482 L141.53 445.359 L142.26 445.272 L142.993 445.22 L143.729 445.202 L144.435 445.212 L145.116 445.24 L145.773 445.287 L146.407 445.354 L147.015 445.439 L147.6 445.543 L148.16 445.666 L148.696 445.808 L149.208 445.968 L149.695 446.148 L150.164 446.341 L150.617 446.553 L151.056 446.782 L151.481 447.029 L151.89 447.294 L152.286 447.577 L152.667 447.878 L153.033 448.197 L153.385 448.534 L153.722 448.889 L154.045 449.259 L154.356 449.651 L154.655 450.066 L154.94 450.503 L155.213 450.963 L155.474 451.444 L155.722 451.948 L155.957 452.475 L156.18 453.023 L156.39 453.594 L157.357 452.695 L158.298 451.852 L159.214 451.064 L160.104 450.331 L160.968 449.653 L161.806 449.031 L162.619 448.463 L163.406 447.952 L164.167 447.495 L164.903 447.094 L165.629 446.735 L166.361 446.413 L167.1 446.129 L167.845 445.883 L168.596 445.675 L169.353 445.505 L170.117 445.372 L170.887 445.278 L171.664 445.221 L172.446 445.202 L173.209 445.213 L173.945 445.244 L174.655 445.296 L175.337 445.369 L175.993 445.463 L176.623 445.578 L177.226 445.713 L177.802 445.87 L178.351 446.047 L178.874 446.245 L179.374 446.461 L179.856 446.699 L180.321 446.961 L180.767 447.246 L181.196 447.555 L181.607 447.887 L181.999 448.242 L182.374 448.62 L182.731 449.022 L183.07 449.447 L183.391 449.89 L183.694 450.355 L183.979 450.842 L184.246 451.352 L184.495 451.884 L184.726 452.439 L184.939 453.016 L185.134 453.615 L185.312 454.236 L185.471 454.88 L185.614 455.543 L185.742 456.231 L185.854 456.946 L185.952 457.686 L186.035 458.451 L186.102 459.243 L186.155 460.06 L186.193 460.903 L186.215 461.771 L186.223 462.665 L186.223 480.662 L186.224 481.096 L186.226 481.525 L186.229 481.948 L186.234 482.366 L186.241 482.779 L186.249 483.186 L186.258 483.588 L186.269 483.984 L186.282 484.375 L186.296 484.761 L186.312 485.132 L186.333 485.488 L186.359 485.829 L186.389 486.155 L186.423 486.465 L186.461 486.761 L186.504 487.042 L186.552 487.307 L186.603 487.558 L186.659 487.793 L186.72 488.012 L186.785 488.224 L186.854 488.428 L186.927 488.624 L187.005 488.812 L187.087 488.992 L187.174 489.165 L187.265 489.33 L187.36 489.487 L187.46 489.637 L187.566 489.775 L187.68 489.91 L187.802 490.041 L187.933 490.168 L188.072 490.291 L188.219 490.411 L188.375 490.526 L188.539 490.638 L188.711 490.745 L188.891 490.849 L189.079 490.945 L189.275 491.037 L189.479 491.127 L189.69 491.214 L189.909 491.298 L190.137 491.379 L190.371 491.457 L190.614 491.532 L190.864 491.605 L191.122 491.674 L191.122 494.876 L167.741 494.876 L167.741 491.674 L168.164 491.562 L168.56 491.44 L168.928 491.308 L169.27 491.166 L169.584 491.013 L169.871 490.85 L170.131 490.677 L170.364 490.494 L170.57 490.301 L170.748 490.097 L170.908 489.881 L171.058 489.649 L171.197 489.402 L171.327 489.139 L171.446 488.86 L171.555 488.566 L171.653 488.257 L171.742 487.932 L171.82 487.591 L171.888 487.235 L171.948 486.843 L172.002 486.393 L172.049 485.886 L172.09 485.322 L172.125 484.701 L172.153 484.022 L172.175 483.286 L172.191 482.493 L172.201 481.643 L172.204 480.735 L172.204 467.516 L172.201 466.645 L172.192 465.807 L172.177 465.002 L172.157 464.229 L172.131 463.49 L172.099 462.784 L172.061 462.111 L172.017 461.47 L171.968 460.863 L171.913 460.289 L171.849 459.743 L171.775 459.221 L171.69 458.724 L171.594 458.251 L171.488 457.802 L171.371 457.378 L171.244 456.978 L171.105 456.602 L170.956 456.25 L170.797 455.923 L170.629 455.616 L170.454 455.328 L170.274 455.058 L170.087 454.805 L169.893 454.571 L169.694 454.354 L169.488 454.155 L169.276 453.975 L169.057 453.812 L168.832 453.667 L168.597 453.533 L168.348 453.414 L168.085 453.308 L167.808 453.217 L167.516 453.139 L167.211 453.076 L166.892 453.027 L166.558 452.992 L166.211 452.971 L165.849 452.964 L165.599 452.968 L165.352 452.98 L165.11 453.001 L164.871 453.03 L164.636 453.067 L164.405 453.112 L164.178 453.166 L163.955 453.228 L163.736 453.298 L163.521 453.376 L163.307 453.458 L163.093 453.549 L162.878 453.648 L162.663 453.756 L162.447 453.873 L162.231 453.999 L162.015 454.133 L161.797 454.276 L161.58 454.428 L161.362 454.589 L161.147 454.749 L160.938 454.911 L160.735 455.073 L160.539 455.237 L160.349 455.401 L160.166 455.567 L159.988 455.733 L159.817 455.9 L159.653 456.069 L159.494 456.238 L159.342 456.405 L159.196 456.577 L159.057 456.752 L158.924 456.933 L158.797 457.117 L158.676 457.306 L158.562 457.499 L158.454 457.697 L158.353 457.899 L158.257 458.106 L158.168 458.312 L158.085 458.524 L158.007 458.741 L157.935 458.963 L157.869 459.191 L157.809 459.424 L157.755 459.663 L157.706 459.906 L157.664 460.155 L157.627 460.41 L157.594 460.683 L157.566 460.989 L157.54 461.327 L157.518 461.698 L157.499 462.102 L157.484 462.537 L157.472 463.006 L157.464 463.507 L157.459 464.04 L157.457 464.606 L157.457 480.687 L157.458 481.34 L157.462 481.962 L157.468 482.553 L157.476 483.112 L157.487 483.64 L157.501 484.136 L157.516 484.6 L157.535 485.033 L157.555 485.434 L157.578 485.804 L157.605 486.152 L157.637 486.485 L157.675 486.806 L157.718 487.112 L157.766 487.405 L157.82 487.685 L157.879 487.95 L157.943 488.203 L158.013 488.441 L158.088 488.666 L158.17 488.881 L158.261 489.088 L158.362 489.288 L158.472 489.481 L158.591 489.667 L158.719 489.845 L158.857 490.016 L159.003 490.18 L159.159 490.336 L159.324 490.485 L159.504 490.624 L159.702 490.758 L159.919 490.888 L160.155 491.013 L160.41 491.134 L160.684 491.251 L160.976 491.363 L161.288 491.471 L161.619 491.575 L161.968 491.674 L161.968 494.876 L138.878 494.876 L138.878 491.674 L139.31 491.562 L139.715 491.44 L140.092 491.308 L140.442 491.166 L140.764 491.013 L141.058 490.85 L141.324 490.677 L141.563 490.494 L141.775 490.301 L141.958 490.097 L142.122 489.881 L142.275 489.65 L142.417 489.404 L142.548 489.143 L142.668 488.866 L142.776 488.575 L142.873 488.269 L142.959 487.947 L143.034 487.611 L143.098 487.26 L143.154 486.871 L143.203 486.424 L143.247 485.919 L143.284 485.354 L143.316 484.731 L143.343 484.049 L143.363 483.309 L143.378 482.51 L143.386 481.652 L143.389 480.735 L143.389 467.516 L143.388 466.877 L143.384 466.257 L143.378 465.658 L143.37 465.079 L143.359 464.521 L143.346 463.983 L143.33 463.465 L143.312 462.968 L143.291 462.491 L143.268 462.035 L143.242 461.592 L143.213 461.168 L143.18 460.76 L143.144 460.37 L143.104 459.997 L143.061 459.642 L143.015 459.305 L142.965 458.985 L142.912 458.682 L142.856 458.397 L142.795 458.124 L142.731 457.857 L142.661 457.598 L142.588 457.345 L142.51 457.099 L142.428 456.86 L142.341 456.628 L142.25 456.402 L142.155 456.183 L142.055 455.971 L141.952 455.767 L141.846 455.571 L141.737 455.383 L141.624 455.203 L141.51 455.031 L141.392 454.868 L141.271 454.713 L141.147 454.566 L141.021 454.428 L140.891 454.298 L140.758 454.17 L140.619 454.048 L140.476 453.933 L140.328 453.824 L140.176 453.722 L140.018 453.625 L139.855 453.535 L139.688 453.452 L139.516 453.374 L139.339 453.303 L139.155 453.239 L138.961 453.181 L138.759 453.13 L138.547 453.086 L138.326 453.049 L138.096 453.018 L137.857 452.994 L137.608 452.977 L137.35 452.967 L137.083 452.964 L136.722 452.975 L136.358 453.008 L135.991 453.064 L135.62 453.142 L135.246 453.243 L134.868 453.365 L134.487 453.51 L134.103 453.678 L133.715 453.867 L133.324 454.079 L132.937 454.311 L132.563 454.561 L132.202 454.827 L131.853 455.112 L131.517 455.413 L131.193 455.733 L130.882 456.069 L130.584 456.423 L130.298 456.795 L130.025 457.184 L129.772 457.585 L129.545 457.991 L129.345 458.403 L129.171 458.822 L129.024 459.246 L128.904 459.675 L128.811 460.111 L128.744 460.552 L128.704 461 L128.691 461.453 L128.691 480.614 L128.694 481.522 L128.702 482.374 L128.715 483.169 L128.734 483.909 L128.758 484.592 L128.787 485.218 L128.822 485.789 L128.862 486.303 L128.907 486.761 L128.958 487.163 L129.017 487.523 L129.089 487.869 L129.172 488.199 L129.268 488.513 L129.376 488.812 L129.496 489.095 L129.628 489.363 L129.773 489.615 L129.929 489.852 L130.098 490.073 L130.285 490.281 L130.499 490.479 L130.74 490.665 L131.006 490.842 L131.298 491.007 L131.617 491.162 L131.962 491.306 L132.333 491.439 L132.73 491.562 L133.154 491.674 L133.154 494.876 L109.918 494.876 L109.918 491.674 L110.369 491.544 L110.792 491.406 L111.186 491.261 L111.552 491.107 L111.889 490.946 L112.197 490.777 L112.477 490.601 L112.728 490.417 L112.95 490.224 L113.144 490.025 L113.317 489.814 L113.48 489.588 L113.63 489.348 L113.769 489.093 L113.896 488.824 L114.011 488.54 L114.115 488.242 L114.207 487.929 L114.288 487.602 L114.357 487.26 L114.416 486.882 L114.47 486.447 L114.517 485.954 L114.558 485.405 L114.593 484.798 L114.621 484.134 L114.643 483.412 L114.659 482.634 L114.669 481.798 L114.672 480.905 L114.672 460.968 L114.671 460.268 L114.667 459.606 L114.661 458.982 L114.652 458.395 L114.642 457.845 L114.628 457.332 L114.612 456.857 L114.594 456.419 L114.574 456.019 L114.551 455.656 L114.523 455.318 L114.489 454.994 L114.447 454.684 L114.399 454.387 L114.344 454.104 L114.283 453.834 L114.214 453.578 L114.139 453.335 L114.057 453.106 L113.968 452.891 L113.871 452.686 L113.765 452.489 L113.648 452.3 L113.522 452.119 L113.386 451.945 L113.241 451.779 L113.086 451.621 L112.921 451.471 L112.746 451.328 L112.562 451.193 L112.359 451.064 L112.128 450.938 L111.87 450.815 L111.584 450.696 L111.27 450.581 L110.929 450.468 L110.56 450.359 L110.163 450.254 L109.739 450.152 L109.287 450.053 L109.287 446.754 L122.579 446.754 L128.691 446.754 L127.963 452.721 Z " stroke="black" stroke-width="1" fill="none" />
<path d="M227.067 489.297 L226.34 489.054 L225.546 489.809 L224.757 490.521 L223.973 491.191 L223.193 491.818 L222.417 492.402 L221.645 492.943 L220.878 493.442 L220.115 493.898 L219.357 494.311 L218.603 494.681 L217.846 495.013 L217.08 495.31 L216.305 495.572 L215.521 495.799 L214.728 495.991 L213.925 496.148 L213.114 496.271 L212.293 496.358 L211.462 496.41 L210.623 496.428 L209.799 496.412 L208.998 496.365 L208.218 496.286 L207.46 496.176 L206.724 496.034 L206.01 495.86 L205.317 495.655 L204.647 495.419 L203.998 495.151 L203.371 494.851 L202.77 494.519 L202.199 494.162 L201.658 493.782 L201.147 493.377 L200.666 492.947 L200.216 492.494 L199.795 492.016 L199.405 491.514 L199.044 490.988 L198.714 490.437 L198.414 489.865 L198.146 489.277 L197.91 488.67 L197.705 488.046 L197.531 487.405 L197.39 486.746 L197.279 486.07 L197.2 485.376 L197.153 484.665 L197.137 483.937 L197.207 482.489 L197.418 481.104 L197.768 479.782 L198.259 478.523 L198.89 477.327 L199.661 476.195 L200.572 475.125 L201.623 474.118 L202.815 473.175 L204.147 472.295 L205.621 471.477 L207.241 470.722 L209.005 470.029 L210.915 469.4 L212.97 468.832 L215.169 468.327 L217.514 467.885 L220.004 467.506 L222.638 467.189 L225.418 466.934 L225.418 462.011 L225.408 461.072 L225.377 460.177 L225.326 459.326 L225.255 458.518 L225.163 457.754 L225.051 457.034 L224.919 456.357 L224.766 455.724 L224.593 455.134 L224.399 454.589 L224.19 454.081 L223.969 453.604 L223.736 453.159 L223.491 452.745 L223.235 452.363 L222.967 452.013 L222.688 451.694 L222.397 451.407 L222.094 451.151 L221.78 450.926 L221.454 450.724 L221.114 450.542 L220.763 450.382 L220.398 450.243 L220.022 450.126 L219.632 450.03 L219.23 449.955 L218.815 449.902 L218.388 449.87 L217.948 449.859 L217.508 449.868 L217.079 449.894 L216.663 449.938 L216.26 449.999 L215.868 450.077 L215.488 450.173 L215.121 450.287 L214.766 450.418 L214.422 450.566 L214.091 450.732 L213.769 450.922 L213.454 451.144 L213.145 451.396 L212.842 451.679 L212.545 451.993 L212.255 452.339 L211.971 452.715 L211.693 453.123 L211.422 453.561 L211.156 454.031 L210.901 454.53 L210.66 455.067 L210.432 455.642 L210.217 456.255 L210.017 456.905 L209.829 457.593 L209.656 458.32 L209.496 459.084 L209.349 459.885 L209.216 460.725 L200.048 460.725 L200.048 451.557 L200.925 451.154 L201.773 450.77 L202.59 450.405 L203.378 450.059 L204.135 449.732 L204.862 449.423 L205.559 449.134 L206.226 448.864 L206.863 448.612 L207.47 448.38 L208.061 448.16 L208.65 447.949 L209.239 447.745 L209.825 447.549 L210.411 447.361 L210.994 447.18 L211.577 447.008 L212.158 446.843 L212.737 446.686 L213.315 446.536 L213.886 446.395 L214.445 446.263 L214.992 446.139 L215.527 446.024 L216.05 445.918 L216.56 445.82 L217.059 445.731 L217.545 445.651 L218.019 445.58 L218.481 445.518 L218.937 445.458 L219.393 445.404 L219.849 445.357 L220.305 445.316 L220.761 445.281 L221.217 445.253 L221.673 445.231 L222.129 445.215 L222.585 445.205 L223.041 445.202 L224.192 445.218 L225.295 445.265 L226.351 445.344 L227.36 445.454 L228.323 445.596 L229.238 445.77 L230.106 445.975 L230.927 446.211 L231.701 446.479 L232.428 446.779 L233.113 447.114 L233.764 447.489 L234.379 447.904 L234.958 448.358 L235.502 448.853 L236.011 449.387 L236.484 449.96 L236.922 450.574 L237.324 451.228 L237.691 451.921 L238.023 452.656 L238.32 453.446 L238.582 454.29 L238.809 455.188 L239.001 456.141 L239.158 457.148 L239.28 458.209 L239.367 459.325 L239.42 460.495 L239.437 461.72 L239.437 480.978 L239.439 481.613 L239.443 482.219 L239.45 482.795 L239.461 483.341 L239.474 483.858 L239.49 484.345 L239.509 484.803 L239.53 485.231 L239.555 485.629 L239.583 485.998 L239.614 486.343 L239.648 486.671 L239.685 486.98 L239.726 487.271 L239.771 487.545 L239.819 487.8 L239.87 488.037 L239.924 488.257 L239.982 488.458 L240.044 488.642 L240.108 488.813 L240.177 488.977 L240.248 489.133 L240.323 489.282 L240.401 489.424 L240.483 489.559 L240.568 489.686 L240.657 489.806 L240.749 489.919 L240.844 490.025 L240.943 490.125 L241.047 490.222 L241.155 490.315 L241.267 490.405 L241.384 490.492 L241.505 490.575 L241.63 490.654 L241.76 490.731 L241.894 490.804 L242.033 490.874 L242.186 490.938 L242.363 491.006 L242.566 491.078 L242.793 491.153 L243.045 491.231 L243.322 491.313 L243.623 491.398 L243.95 491.487 L244.301 491.579 L244.676 491.674 L244.676 494.876 L226.631 494.876 L227.067 489.297 Z " stroke="black" stroke-width="1" fill="none" />
<path d="M225.467 471.591 L224.002 471.661 L222.615 471.782 L221.307 471.956 L220.076 472.181 L218.924 472.458 L217.85 472.787 L216.854 473.168 L215.936 473.601 L215.096 474.086 L214.334 474.623 L213.647 475.207 L213.033 475.842 L212.491 476.53 L212.021 477.27 L211.623 478.061 L211.298 478.904 L211.045 479.8 L210.864 480.747 L210.756 481.746 L210.72 482.797 L210.736 483.427 L210.786 484.026 L210.868 484.595 L210.984 485.133 L211.132 485.641 L211.314 486.118 L211.528 486.564 L211.775 486.98 L212.056 487.366 L212.369 487.72 L212.712 488.038 L213.079 488.323 L213.472 488.574 L213.89 488.792 L214.334 488.976 L214.802 489.126 L215.296 489.243 L215.815 489.327 L216.36 489.377 L216.929 489.394 L217.373 489.382 L217.812 489.346 L218.246 489.287 L218.675 489.204 L219.1 489.097 L219.519 488.966 L219.934 488.812 L220.344 488.633 L220.749 488.431 L221.149 488.206 L221.539 487.96 L221.912 487.698 L222.268 487.42 L222.609 487.127 L222.932 486.817 L223.239 486.491 L223.53 486.149 L223.804 485.792 L224.061 485.418 L224.302 485.028 L224.524 484.628 L224.722 484.223 L224.896 483.813 L225.048 483.398 L225.176 482.979 L225.28 482.554 L225.362 482.125 L225.42 481.691 L225.455 481.252 L225.467 480.808 L225.467 471.591 Z " stroke="black" stroke-width="1" fill="none" />
<path d="M269.319 480.784 L269.322 481.682 L269.331 482.522 L269.345 483.306 L269.365 484.032 L269.392 484.701 L269.424 485.312 L269.462 485.867 L269.505 486.364 L269.555 486.804 L269.61 487.187 L269.674 487.529 L269.751 487.858 L269.839 488.174 L269.94 488.475 L270.053 488.763 L270.178 489.038 L270.315 489.299 L270.464 489.546 L270.625 489.78 L270.798 490 L270.994 490.205 L271.22 490.401 L271.479 490.589 L271.769 490.769 L272.09 490.94 L272.443 491.103 L272.827 491.258 L273.243 491.405 L273.691 491.544 L274.17 491.674 L274.17 494.876 L250.4 494.876 L250.4 491.674 L250.685 491.605 L250.957 491.533 L251.217 491.459 L251.464 491.383 L251.698 491.304 L251.92 491.223 L252.129 491.139 L252.325 491.053 L252.509 490.964 L252.68 490.874 L252.842 490.775 L252.996 490.675 L253.142 490.572 L253.282 490.466 L253.414 490.358 L253.539 490.248 L253.657 490.135 L253.767 490.02 L253.87 489.902 L253.966 489.782 L254.057 489.653 L254.145 489.517 L254.231 489.375 L254.315 489.227 L254.396 489.073 L254.475 488.912 L254.552 488.745 L254.625 488.571 L254.697 488.392 L254.766 488.206 L254.832 488.004 L254.892 487.788 L254.948 487.558 L254.999 487.313 L255.045 487.053 L255.086 486.779 L255.123 486.491 L255.154 486.188 L255.181 485.87 L255.203 485.538 L255.221 485.183 L255.238 484.799 L255.252 484.386 L255.265 483.943 L255.276 483.47 L255.284 482.968 L255.291 482.436 L255.296 481.874 L255.299 481.283 L255.3 480.662 L255.3 442.195 L255.299 441.368 L255.297 440.587 L255.293 439.851 L255.288 439.16 L255.282 438.514 L255.274 437.913 L255.264 437.358 L255.253 436.847 L255.241 436.382 L255.227 435.961 L255.211 435.565 L255.192 435.182 L255.17 434.812 L255.146 434.455 L255.118 434.112 L255.087 433.781 L255.054 433.464 L255.017 433.159 L254.978 432.868 L254.936 432.59 L254.889 432.324 L254.837 432.069 L254.779 431.825 L254.715 431.592 L254.645 431.371 L254.569 431.161 L254.488 430.962 L254.4 430.774 L254.307 430.597 L254.208 430.431 L254.102 430.27 L253.988 430.115 L253.866 429.967 L253.735 429.826 L253.596 429.691 L253.449 429.564 L253.293 429.443 L253.129 429.329 L252.957 429.222 L252.777 429.121 L252.582 429.021 L252.364 428.923 L252.124 428.827 L251.861 428.733 L251.577 428.642 L251.27 428.554 L250.94 428.468 L250.589 428.384 L250.215 428.303 L249.818 428.224 L249.818 425.022 L263.255 425.022 L269.319 425.022 L269.319 480.784 Z " stroke="black" stroke-width="1" fill="none" />
<path d="M300.365 480.784 L300.368 481.682 L300.376 482.522 L300.391 483.306 L300.411 484.032 L300.437 484.701 L300.469 485.312 L300.507 485.867 L300.551 486.364 L300.6 486.804 L300.656 487.187 L300.72 487.529 L300.796 487.858 L300.885 488.174 L300.986 488.475 L301.098 488.763 L301.223 489.038 L301.36 489.299 L301.51 489.546 L301.671 489.78 L301.844 490 L302.039 490.205 L302.266 490.401 L302.525 490.589 L302.814 490.769 L303.136 490.94 L303.489 491.103 L303.873 491.258 L304.289 491.405 L304.737 491.544 L305.216 491.674 L305.216 494.876 L281.446 494.876 L281.446 491.674 L281.731 491.605 L282.003 491.533 L282.263 491.459 L282.509 491.383 L282.744 491.304 L282.965 491.223 L283.175 491.139 L283.371 491.053 L283.555 490.964 L283.726 490.874 L283.887 490.775 L284.041 490.675 L284.188 490.572 L284.328 490.466 L284.46 490.358 L284.585 490.248 L284.702 490.135 L284.813 490.02 L284.916 489.902 L285.012 489.782 L285.103 489.653 L285.191 489.517 L285.277 489.375 L285.361 489.227 L285.442 489.073 L285.521 488.912 L285.597 488.745 L285.671 488.571 L285.743 488.392 L285.812 488.206 L285.877 488.004 L285.938 487.788 L285.994 487.558 L286.045 487.313 L286.091 487.053 L286.132 486.779 L286.169 486.491 L286.2 486.188 L286.227 485.87 L286.249 485.538 L286.267 485.183 L286.283 484.799 L286.298 484.386 L286.311 483.943 L286.321 483.47 L286.33 482.968 L286.337 482.436 L286.342 481.874 L286.345 481.283 L286.346 480.662 L286.346 442.195 L286.345 441.368 L286.343 440.587 L286.339 439.851 L286.334 439.16 L286.327 438.514 L286.319 437.913 L286.31 437.358 L286.299 436.847 L286.287 436.382 L286.273 435.961 L286.257 435.565 L286.238 435.182 L286.216 434.812 L286.191 434.455 L286.164 434.112 L286.133 433.781 L286.1 433.464 L286.063 433.159 L286.024 432.868 L285.982 432.59 L285.935 432.324 L285.883 432.069 L285.825 431.825 L285.761 431.592 L285.691 431.371 L285.615 431.161 L285.534 430.962 L285.446 430.774 L285.353 430.597 L285.254 430.431 L285.148 430.27 L285.034 430.115 L284.911 429.967 L284.781 429.826 L284.642 429.691 L284.494 429.564 L284.339 429.443 L284.175 429.329 L284.003 429.222 L283.823 429.121 L283.628 429.021 L283.41 428.923 L283.17 428.827 L282.907 428.733 L282.623 428.642 L282.315 428.554 L281.986 428.468 L281.634 428.384 L281.26 428.303 L280.864 428.224 L280.864 425.022 L294.301 425.022 L300.365 425.022 L300.365 480.784 Z " stroke="black" stroke-width="1" fill="none" />
<path d="M349.213 494.876 L349.213 491.674 L349.612 491.604 L349.994 491.529 L350.359 491.451 L350.707 491.367 L351.039 491.28 L351.353 491.188 L351.65 491.092 L351.93 490.991 L352.193 490.886 L352.439 490.777 L352.671 490.656 L352.89 490.526 L353.098 490.388 L353.293 490.241 L353.476 490.085 L353.647 489.921 L353.806 489.748 L353.953 489.566 L354.087 489.375 L354.21 489.176 L354.322 488.962 L354.425 488.737 L354.52 488.502 L354.606 488.256 L354.683 487.999 L354.751 487.732 L354.811 487.454 L354.862 487.165 L354.904 486.866 L354.937 486.556 L354.965 486.228 L354.99 485.885 L355.012 485.526 L355.031 485.151 L355.047 484.761 L355.06 484.356 L355.07 483.935 L355.077 483.498 L355.082 483.046 L355.083 482.578 L355.083 433.609 L351.154 433.609 L350.585 433.616 L350.044 433.637 L349.53 433.672 L349.043 433.721 L348.583 433.784 L348.15 433.862 L347.745 433.953 L347.366 434.059 L347.015 434.178 L346.691 434.312 L346.385 434.456 L346.086 434.617 L345.797 434.794 L345.515 434.987 L345.242 435.197 L344.977 435.424 L344.72 435.667 L344.471 435.926 L344.231 436.202 L343.999 436.495 L343.774 436.801 L343.555 437.127 L343.343 437.474 L343.137 437.841 L342.938 438.229 L342.744 438.637 L342.557 439.065 L342.377 439.514 L342.202 439.983 L342.034 440.473 L341.872 440.97 L341.716 441.461 L341.565 441.947 L341.421 442.428 L341.282 442.904 L341.149 443.374 L341.022 443.839 L340.901 444.299 L340.785 444.753 L340.676 445.202 L334.03 445.202 L334.03 428.127 L391.125 428.127 L391.125 445.202 L384.48 445.202 L384.299 444.546 L384.126 443.925 L383.961 443.341 L383.804 442.792 L383.655 442.28 L383.513 441.803 L383.379 441.362 L383.253 440.957 L383.135 440.588 L383.024 440.254 L382.916 439.939 L382.806 439.633 L382.693 439.337 L382.578 439.051 L382.46 438.775 L382.34 438.508 L382.218 438.251 L382.093 438.003 L381.966 437.766 L381.836 437.538 L381.704 437.318 L381.571 437.107 L381.436 436.903 L381.3 436.707 L381.163 436.519 L381.024 436.339 L380.883 436.166 L380.741 436.001 L380.598 435.844 L380.453 435.694 L380.307 435.547 L380.158 435.406 L380.008 435.272 L379.856 435.143 L379.701 435.021 L379.545 434.906 L379.387 434.796 L379.227 434.693 L379.065 434.596 L378.901 434.506 L378.732 434.416 L378.555 434.331 L378.369 434.251 L378.175 434.176 L377.973 434.106 L377.763 434.04 L377.544 433.98 L377.318 433.924 L377.083 433.873 L376.839 433.827 L376.584 433.785 L376.314 433.748 L376.029 433.715 L375.729 433.687 L375.414 433.663 L375.084 433.643 L374.739 433.628 L374.379 433.617 L374.004 433.611 L373.613 433.609 L370.121 433.609 L370.121 482.578 L370.122 483.09 L370.127 483.576 L370.134 484.037 L370.144 484.472 L370.157 484.883 L370.173 485.268 L370.192 485.628 L370.214 485.962 L370.239 486.272 L370.266 486.556 L370.298 486.818 L370.334 487.07 L370.375 487.313 L370.422 487.546 L370.473 487.769 L370.528 487.982 L370.589 488.186 L370.654 488.38 L370.725 488.564 L370.8 488.739 L370.879 488.901 L370.962 489.056 L371.048 489.206 L371.138 489.348 L371.23 489.485 L371.327 489.615 L371.426 489.739 L371.53 489.857 L371.636 489.968 L371.746 490.073 L371.862 490.174 L371.986 490.274 L372.12 490.372 L372.262 490.469 L372.413 490.564 L372.572 490.658 L372.741 490.751 L372.918 490.842 L373.104 490.931 L373.298 491.019 L373.504 491.1 L373.724 491.177 L373.958 491.251 L374.206 491.322 L374.468 491.389 L374.745 491.453 L375.035 491.513 L375.339 491.57 L375.658 491.624 L375.99 491.674 L375.99 494.876 L349.213 494.876 Z " stroke="black" stroke-width="1" fill="none" />
<path d="M442.545 486.75 L441.556 487.777 L440.57 488.742 L439.585 489.646 L438.602 490.487 L437.621 491.268 L436.642 491.986 L435.665 492.643 L434.69 493.239 L433.717 493.773 L432.746 494.245 L431.761 494.66 L430.747 495.031 L429.705 495.358 L428.632 495.642 L427.531 495.882 L426.401 496.079 L425.242 496.231 L424.053 496.34 L422.836 496.406 L421.589 496.428 L419.384 496.364 L417.292 496.173 L415.312 495.854 L413.443 495.407 L411.687 494.833 L410.043 494.131 L408.511 493.302 L407.091 492.345 L405.783 491.261 L404.587 490.049 L403.504 488.711 L402.535 487.25 L401.68 485.665 L400.939 483.956 L400.312 482.124 L399.799 480.168 L399.4 478.088 L399.115 475.884 L398.944 473.557 L398.887 471.106 L398.916 469.508 L399.004 467.955 L399.151 466.446 L399.356 464.982 L399.62 463.563 L399.943 462.188 L400.325 460.858 L400.765 459.573 L401.264 458.332 L401.822 457.135 L402.433 455.99 L403.093 454.901 L403.803 453.869 L404.561 452.894 L405.369 451.975 L406.225 451.114 L407.131 450.309 L408.085 449.56 L409.088 448.869 L410.141 448.234 L411.235 447.658 L412.364 447.143 L413.529 446.688 L414.728 446.294 L415.962 445.96 L417.231 445.687 L418.535 445.475 L419.874 445.323 L421.247 445.233 L422.656 445.202 L423.528 445.213 L424.378 445.246 L425.207 445.3 L426.013 445.377 L426.798 445.475 L427.56 445.595 L428.301 445.737 L429.021 445.901 L429.718 446.086 L430.393 446.294 L431.048 446.516 L431.685 446.754 L432.302 447.01 L432.9 447.283 L433.48 447.573 L434.04 447.88 L434.582 448.204 L435.105 448.544 L435.608 448.902 L436.093 449.277 L436.56 449.668 L437.011 450.075 L437.445 450.499 L437.863 450.938 L438.264 451.393 L438.649 451.864 L439.017 452.352 L439.369 452.855 L439.704 453.374 L440.022 453.91 L440.382 454.564 L440.723 455.237 L441.045 455.928 L441.35 456.638 L441.635 457.366 L441.903 458.112 L442.151 458.877 L442.382 459.661 L442.594 460.463 L442.787 461.283 L442.972 462.154 L443.139 463.061 L443.287 464.004 L443.416 464.981 L443.527 465.994 L443.62 467.043 L443.694 468.127 L443.75 469.246 L443.787 470.401 L443.806 471.591 L413.051 471.591 L413.091 473.301 L413.192 474.918 L413.353 476.442 L413.575 477.874 L413.858 479.213 L414.201 480.46 L414.605 481.613 L415.069 482.675 L415.594 483.643 L416.18 484.519 L416.829 485.307 L417.541 486.012 L418.319 486.634 L419.161 487.173 L420.067 487.629 L421.038 488.003 L422.073 488.293 L423.173 488.5 L424.338 488.625 L425.567 488.666 L426.297 488.653 L427.012 488.612 L427.713 488.544 L428.4 488.449 L429.071 488.327 L429.729 488.177 L430.372 488.001 L431 487.797 L431.613 487.566 L432.212 487.308 L432.809 487.011 L433.415 486.672 L434.032 486.291 L434.657 485.868 L435.293 485.404 L435.938 484.898 L436.593 484.35 L437.257 483.761 L437.932 483.13 L438.616 482.457 L442.545 486.75 Z " stroke="black" stroke-width="1" fill="none" />
<path d="M429.447 466.934 L429.393 465.256 L429.308 463.666 L429.191 462.163 L429.044 460.748 L428.865 459.421 L428.656 458.182 L428.415 457.031 L428.144 455.967 L427.841 454.992 L427.507 454.104 L427.136 453.297 L426.723 452.576 L426.267 451.939 L425.769 451.387 L425.227 450.92 L424.643 450.538 L424.016 450.241 L423.347 450.029 L422.635 449.902 L421.88 449.859 L421.148 449.903 L420.447 450.035 L419.776 450.254 L419.136 450.561 L418.527 450.957 L417.948 451.439 L417.399 452.01 L416.882 452.669 L416.394 453.415 L415.938 454.249 L415.514 455.166 L415.126 456.161 L414.773 457.235 L414.455 458.386 L414.173 459.615 L413.926 460.923 L413.715 462.309 L413.539 463.772 L413.399 465.314 L413.294 466.934 L429.447 466.934 Z " stroke="black" stroke-width="1" fill="none" />
<path d="M479.266 468.293 L490.617 484.398 L490.934 484.846 L491.243 485.278 L491.545 485.693 L491.84 486.093 L492.127 486.477 L492.407 486.845 L492.68 487.197 L492.946 487.533 L493.204 487.853 L493.455 488.157 L493.702 488.446 L493.948 488.723 L494.193 488.986 L494.437 489.236 L494.68 489.473 L494.922 489.697 L495.163 489.907 L495.403 490.105 L495.642 490.29 L495.881 490.461 L496.121 490.622 L496.365 490.774 L496.613 490.917 L496.866 491.051 L497.124 491.177 L497.385 491.294 L497.651 491.402 L497.922 491.501 L498.197 491.592 L498.476 491.674 L498.476 494.876 L474.852 494.876 L474.852 491.674 L475.423 491.588 L475.935 491.464 L476.386 491.304 L476.777 491.107 L477.108 490.874 L477.378 490.603 L477.589 490.295 L477.739 489.951 L477.829 489.57 L477.86 489.151 L477.858 489.036 L477.854 488.922 L477.846 488.809 L477.836 488.697 L477.823 488.588 L477.807 488.479 L477.788 488.372 L477.766 488.267 L477.742 488.163 L477.714 488.06 L477.683 487.958 L477.65 487.856 L477.614 487.754 L477.574 487.653 L477.532 487.551 L477.487 487.449 L477.439 487.347 L477.388 487.245 L477.334 487.143 L477.277 487.041 L477.213 486.932 L477.138 486.807 L477.05 486.668 L476.951 486.514 L476.841 486.344 L476.719 486.159 L476.585 485.96 L476.439 485.745 L476.282 485.515 L476.113 485.271 L470.632 477.412 L465.538 483.67 L465.221 484.057 L464.928 484.423 L464.66 484.767 L464.417 485.09 L464.198 485.392 L464.004 485.672 L463.835 485.931 L463.691 486.169 L463.571 486.385 L463.477 486.58 L463.398 486.767 L463.328 486.959 L463.266 487.155 L463.213 487.357 L463.167 487.563 L463.13 487.774 L463.101 487.99 L463.081 488.21 L463.068 488.436 L463.064 488.666 L463.073 488.896 L463.099 489.118 L463.143 489.334 L463.204 489.543 L463.283 489.746 L463.379 489.941 L463.492 490.13 L463.623 490.312 L463.772 490.487 L463.937 490.655 L464.122 490.814 L464.327 490.96 L464.553 491.093 L464.799 491.214 L465.065 491.322 L465.352 491.418 L465.659 491.501 L465.986 491.571 L466.334 491.629 L466.702 491.674 L466.702 494.876 L448.026 494.876 L448.026 491.674 L448.444 491.574 L448.862 491.449 L449.28 491.298 L449.699 491.123 L450.118 490.922 L450.538 490.696 L450.959 490.445 L451.379 490.168 L451.801 489.866 L452.222 489.54 L452.653 489.182 L453.102 488.791 L453.569 488.364 L454.054 487.902 L454.557 487.405 L455.078 486.873 L455.616 486.307 L456.173 485.705 L456.748 485.069 L457.34 484.398 L467.479 472.901 L456.079 456.796 L455.868 456.491 L455.664 456.197 L455.465 455.915 L455.272 455.643 L455.085 455.383 L454.903 455.134 L454.727 454.896 L454.558 454.669 L454.394 454.454 L454.236 454.249 L454.08 454.051 L453.923 453.855 L453.766 453.661 L453.607 453.469 L453.447 453.279 L453.287 453.091 L453.125 452.904 L452.963 452.72 L452.799 452.538 L452.635 452.357 L452.472 452.182 L452.312 452.014 L452.155 451.854 L452.002 451.701 L451.853 451.557 L451.706 451.42 L451.563 451.291 L451.424 451.17 L451.288 451.056 L451.155 450.951 L451.025 450.852 L450.897 450.758 L450.771 450.671 L450.647 450.59 L450.525 450.514 L450.404 450.444 L450.286 450.38 L450.17 450.322 L450.055 450.269 L449.943 450.223 L449.831 450.181 L449.72 450.142 L449.61 450.107 L449.5 450.075 L449.391 450.047 L449.282 450.022 L449.173 450 L449.065 449.982 L448.958 449.967 L448.851 449.956 L448.851 446.754 L472.329 446.754 L472.329 449.956 L471.749 450.097 L471.229 450.267 L470.771 450.465 L470.374 450.693 L470.037 450.951 L469.762 451.237 L469.548 451.552 L469.396 451.896 L469.304 452.27 L469.273 452.673 L469.278 452.838 L469.291 453.005 L469.313 453.174 L469.343 453.344 L469.383 453.515 L469.431 453.688 L469.487 453.863 L469.553 454.039 L469.627 454.216 L469.71 454.395 L469.803 454.579 L469.906 454.772 L470.02 454.975 L470.145 455.186 L470.28 455.407 L470.426 455.637 L470.583 455.877 L470.75 456.125 L470.928 456.383 L471.117 456.65 L476.113 463.781 L481.061 457.621 L481.287 457.334 L481.499 457.057 L481.696 456.789 L481.88 456.53 L482.05 456.28 L482.205 456.04 L482.346 455.809 L482.474 455.587 L482.587 455.374 L482.686 455.171 L482.774 454.971 L482.852 454.77 L482.921 454.568 L482.981 454.364 L483.032 454.158 L483.073 453.951 L483.106 453.743 L483.129 453.533 L483.142 453.322 L483.147 453.109 L483.137 452.843 L483.107 452.586 L483.058 452.34 L482.988 452.104 L482.898 451.878 L482.789 451.663 L482.66 451.457 L482.511 451.262 L482.342 451.077 L482.153 450.902 L481.947 450.74 L481.727 450.593 L481.493 450.46 L481.244 450.343 L480.982 450.241 L480.706 450.154 L480.416 450.082 L480.111 450.025 L479.793 449.983 L479.46 449.956 L479.46 446.754 L497.942 446.754 L497.942 449.956 L497.509 450.073 L497.083 450.209 L496.663 450.366 L496.25 450.542 L495.844 450.738 L495.445 450.954 L495.053 451.19 L494.667 451.446 L494.288 451.722 L493.916 452.018 L493.531 452.35 L493.113 452.737 L492.662 453.177 L492.177 453.671 L491.66 454.219 L491.11 454.821 L490.527 455.476 L489.911 456.186 L489.262 456.949 L488.58 457.766 L479.266 468.293 Z " stroke="black" stroke-width="1" fill="none" />
<path d="M537.38 489.709 L536.534 490.429 L535.704 491.105 L534.889 491.737 L534.089 492.325 L533.305 492.868 L532.537 493.368 L531.784 493.823 L531.047 494.234 L530.325 494.601 L529.619 494.924 L528.916 495.21 L528.206 495.465 L527.488 495.691 L526.763 495.886 L526.029 496.052 L525.288 496.187 L524.539 496.292 L523.782 496.368 L523.018 496.413 L522.245 496.428 L520.836 496.388 L519.501 496.27 L518.238 496.072 L517.049 495.795 L515.933 495.439 L514.89 495.005 L513.921 494.491 L513.025 493.898 L512.202 493.225 L511.452 492.474 L510.775 491.638 L510.169 490.721 L509.634 489.723 L509.17 488.644 L508.778 487.484 L508.457 486.243 L508.208 484.921 L508.029 483.518 L507.922 482.033 L507.887 480.468 L507.887 452.964 L501.823 452.964 L501.823 449.617 L502.399 449.51 L502.945 449.393 L503.459 449.267 L503.942 449.131 L504.394 448.986 L504.815 448.831 L505.205 448.666 L505.564 448.491 L505.892 448.307 L506.189 448.113 L506.464 447.907 L506.726 447.688 L506.976 447.455 L507.213 447.209 L507.438 446.949 L507.65 446.675 L507.849 446.388 L508.036 446.087 L508.21 445.773 L508.372 445.445 L508.524 445.1 L508.67 444.735 L508.809 444.349 L508.942 443.943 L509.069 443.517 L509.19 443.07 L509.304 442.603 L509.412 442.115 L509.513 441.607 L509.609 441.079 L509.699 440.527 L509.784 439.948 L509.866 439.341 L509.942 438.708 L510.015 438.047 L510.083 437.359 L510.147 436.644 L510.206 435.902 L510.261 435.133 L510.312 434.336 L521.906 434.336 L521.906 446.754 L535.731 446.754 L535.731 452.964 L521.906 452.964 L521.906 475.229 L521.911 476.316 L521.926 477.344 L521.952 478.315 L521.987 479.226 L522.033 480.08 L522.089 480.876 L522.155 481.613 L522.232 482.292 L522.318 482.913 L522.415 483.476 L522.524 483.995 L522.647 484.487 L522.784 484.95 L522.935 485.385 L523.1 485.792 L523.28 486.171 L523.473 486.522 L523.68 486.844 L523.902 487.139 L524.137 487.405 L524.386 487.645 L524.646 487.859 L524.917 488.048 L525.201 488.212 L525.495 488.351 L525.802 488.465 L526.12 488.553 L526.45 488.616 L526.792 488.654 L527.145 488.666 L527.414 488.664 L527.676 488.657 L527.934 488.645 L528.185 488.628 L528.43 488.606 L528.67 488.579 L528.904 488.548 L529.132 488.511 L529.354 488.47 L529.57 488.424 L529.785 488.366 L530.002 488.301 L530.221 488.227 L530.443 488.144 L530.668 488.054 L530.895 487.955 L531.124 487.848 L531.355 487.733 L531.589 487.61 L531.826 487.478 L532.065 487.336 L532.306 487.184 L532.55 487.02 L532.796 486.845 L533.045 486.659 L533.296 486.462 L533.549 486.254 L533.805 486.034 L534.063 485.804 L534.324 485.562 L537.38 489.709 Z " stroke="black" stroke-width="1" fill="none" />


<path d="M123.252 310.413 L123.252 363.001 L92.0285 363.001 L92.0285 310.413 L123.252 310.413 Z " stroke="black" stroke-width="1" fill="none" />

<path d="M166.712 362.201 L166.712 360.066 L166.978 360.02 L167.232 359.97 L167.476 359.918 L167.708 359.862 L167.928 359.804 L168.138 359.742 L168.336 359.678 L168.523 359.611 L168.698 359.541 L168.862 359.468 L169.017 359.388 L169.163 359.301 L169.301 359.209 L169.431 359.111 L169.553 359.007 L169.667 358.898 L169.773 358.782 L169.871 358.661 L169.961 358.534 L170.042 358.401 L170.117 358.258 L170.186 358.109 L170.249 357.952 L170.306 357.788 L170.358 357.617 L170.403 357.439 L170.443 357.253 L170.477 357.061 L170.505 356.861 L170.528 356.655 L170.546 356.436 L170.563 356.207 L170.577 355.968 L170.59 355.718 L170.6 355.458 L170.609 355.188 L170.616 354.907 L170.621 354.616 L170.624 354.315 L170.625 354.003 L170.625 321.356 L168.005 321.356 L167.626 321.361 L167.265 321.375 L166.922 321.398 L166.598 321.431 L166.291 321.473 L166.003 321.525 L165.732 321.586 L165.48 321.656 L165.246 321.736 L165.03 321.825 L164.826 321.921 L164.627 322.028 L164.434 322.146 L164.246 322.275 L164.064 322.415 L163.887 322.566 L163.716 322.728 L163.55 322.901 L163.39 323.085 L163.235 323.28 L163.085 323.484 L162.939 323.702 L162.798 323.933 L162.661 324.178 L162.528 324.437 L162.399 324.709 L162.274 324.994 L162.154 325.293 L162.037 325.606 L161.925 325.932 L161.817 326.264 L161.713 326.591 L161.613 326.916 L161.517 327.236 L161.424 327.553 L161.335 327.867 L161.251 328.177 L161.17 328.483 L161.093 328.786 L161.02 329.085 L156.589 329.085 L156.589 317.702 L194.653 317.702 L194.653 329.085 L190.222 329.085 L190.102 328.648 L189.987 328.234 L189.877 327.844 L189.772 327.479 L189.673 327.137 L189.578 326.819 L189.489 326.525 L189.405 326.255 L189.326 326.009 L189.252 325.787 L189.18 325.577 L189.107 325.373 L189.031 325.175 L188.955 324.985 L188.876 324.8 L188.796 324.622 L188.714 324.451 L188.631 324.286 L188.546 324.128 L188.46 323.976 L188.372 323.83 L188.283 323.689 L188.193 323.553 L188.103 323.422 L188.011 323.297 L187.918 323.176 L187.825 323.061 L187.73 322.951 L187.635 322.846 L187.538 322.747 L187.44 322.649 L187.341 322.555 L187.241 322.465 L187.14 322.379 L187.037 322.298 L186.933 322.221 L186.827 322.148 L186.721 322.079 L186.613 322.015 L186.503 321.954 L186.391 321.895 L186.272 321.838 L186.149 321.785 L186.019 321.735 L185.885 321.688 L185.745 321.644 L185.599 321.604 L185.448 321.566 L185.291 321.532 L185.129 321.502 L184.959 321.474 L184.779 321.449 L184.589 321.428 L184.389 321.409 L184.179 321.393 L183.959 321.38 L183.729 321.369 L183.489 321.362 L183.238 321.358 L182.978 321.356 L180.65 321.356 L180.65 354.003 L180.651 354.344 L180.654 354.668 L180.659 354.975 L180.665 355.265 L180.674 355.539 L180.685 355.796 L180.697 356.036 L180.712 356.259 L180.728 356.465 L180.747 356.655 L180.768 356.829 L180.792 356.997 L180.82 357.159 L180.85 357.314 L180.884 357.463 L180.921 357.605 L180.962 357.741 L181.006 357.871 L181.052 357.994 L181.103 358.11 L181.155 358.218 L181.211 358.321 L181.268 358.421 L181.328 358.516 L181.39 358.607 L181.454 358.694 L181.52 358.777 L181.589 358.855 L181.66 358.929 L181.733 358.999 L181.81 359.067 L181.894 359.133 L181.983 359.199 L182.077 359.263 L182.178 359.327 L182.284 359.389 L182.396 359.451 L182.515 359.512 L182.638 359.571 L182.768 359.63 L182.905 359.684 L183.052 359.735 L183.208 359.785 L183.373 359.832 L183.548 359.876 L183.732 359.919 L183.926 359.959 L184.129 359.997 L184.341 360.033 L184.563 360.066 L184.563 362.201 L166.712 362.201 Z " stroke="black" stroke-width="1" fill="none" />
<path d="M228.933 356.784 L228.273 357.468 L227.616 358.112 L226.959 358.714 L226.304 359.275 L225.65 359.796 L224.997 360.275 L224.346 360.713 L223.696 361.11 L223.047 361.466 L222.4 361.78 L221.743 362.057 L221.068 362.304 L220.372 362.523 L219.658 362.712 L218.923 362.872 L218.17 363.003 L217.397 363.105 L216.605 363.178 L215.793 363.221 L214.962 363.236 L213.492 363.193 L212.097 363.066 L210.777 362.853 L209.531 362.555 L208.361 362.173 L207.264 361.705 L206.243 361.152 L205.296 360.514 L204.424 359.791 L203.627 358.983 L202.905 358.091 L202.259 357.117 L201.689 356.06 L201.195 354.921 L200.777 353.7 L200.435 352.396 L200.169 351.009 L199.979 349.54 L199.865 347.989 L199.827 346.355 L199.847 345.289 L199.905 344.254 L200.003 343.248 L200.14 342.272 L200.316 341.326 L200.531 340.409 L200.786 339.523 L201.079 338.666 L201.412 337.838 L201.784 337.041 L202.191 336.277 L202.632 335.551 L203.105 334.863 L203.61 334.213 L204.148 333.601 L204.719 333.026 L205.323 332.49 L205.959 331.991 L206.628 331.53 L207.33 331.107 L208.059 330.723 L208.812 330.379 L209.588 330.076 L210.388 329.813 L211.211 329.591 L212.057 329.409 L212.926 329.267 L213.818 329.166 L214.734 329.106 L215.673 329.085 L216.255 329.093 L216.821 329.114 L217.374 329.151 L217.911 329.202 L218.434 329.267 L218.943 329.347 L219.437 329.442 L219.916 329.551 L220.381 329.675 L220.832 329.813 L221.268 329.961 L221.692 330.12 L222.104 330.291 L222.503 330.473 L222.889 330.666 L223.263 330.87 L223.624 331.086 L223.972 331.314 L224.308 331.552 L224.631 331.802 L224.943 332.063 L225.243 332.334 L225.533 332.616 L225.811 332.909 L226.079 333.213 L226.335 333.527 L226.58 333.852 L226.815 334.187 L227.038 334.533 L227.251 334.89 L227.491 335.327 L227.718 335.775 L227.933 336.236 L228.136 336.709 L228.326 337.194 L228.504 337.692 L228.67 338.202 L228.824 338.724 L228.965 339.259 L229.094 339.806 L229.217 340.387 L229.328 340.991 L229.427 341.62 L229.513 342.271 L229.587 342.947 L229.649 343.646 L229.699 344.368 L229.736 345.115 L229.761 345.885 L229.773 346.678 L209.27 346.678 L209.297 347.818 L209.364 348.896 L209.471 349.912 L209.619 350.867 L209.808 351.759 L210.037 352.59 L210.306 353.359 L210.616 354.067 L210.966 354.713 L211.356 355.296 L211.788 355.822 L212.264 356.292 L212.782 356.707 L213.343 357.066 L213.947 357.37 L214.595 357.619 L215.285 357.813 L216.018 357.951 L216.794 358.034 L217.614 358.061 L218.1 358.052 L218.577 358.025 L219.045 357.98 L219.502 357.917 L219.95 357.835 L220.388 357.735 L220.817 357.618 L221.236 357.482 L221.645 357.328 L222.044 357.156 L222.442 356.958 L222.846 356.732 L223.257 356.478 L223.674 356.196 L224.098 355.887 L224.528 355.549 L224.964 355.184 L225.408 354.791 L225.857 354.371 L226.313 353.922 L228.933 356.784 Z " stroke="black" stroke-width="1" fill="none" />
<path d="M220.201 343.573 L220.165 342.455 L220.108 341.394 L220.03 340.393 L219.932 339.449 L219.813 338.565 L219.673 337.739 L219.513 336.971 L219.332 336.262 L219.13 335.612 L218.907 335.02 L218.66 334.482 L218.385 334.001 L218.081 333.576 L217.748 333.209 L217.387 332.897 L216.998 332.643 L216.58 332.445 L216.134 332.303 L215.659 332.218 L215.156 332.19 L214.668 332.219 L214.201 332.307 L213.754 332.453 L213.327 332.658 L212.92 332.922 L212.535 333.244 L212.169 333.624 L211.824 334.063 L211.499 334.561 L211.194 335.117 L210.912 335.728 L210.653 336.391 L210.418 337.107 L210.206 337.875 L210.018 338.694 L209.854 339.566 L209.713 340.49 L209.596 341.466 L209.502 342.493 L209.432 343.573 L220.201 343.573 Z " stroke="black" stroke-width="1" fill="none" />
<path d="M253.413 344.479 L260.981 355.216 L261.192 355.514 L261.398 355.802 L261.599 356.08 L261.796 356.346 L261.987 356.602 L262.174 356.847 L262.356 357.082 L262.533 357.306 L262.705 357.519 L262.873 357.722 L263.037 357.915 L263.201 358.099 L263.365 358.274 L263.527 358.441 L263.689 358.599 L263.851 358.748 L264.011 358.889 L264.171 359.021 L264.331 359.144 L264.49 359.258 L264.65 359.365 L264.812 359.466 L264.978 359.562 L265.147 359.651 L265.318 359.735 L265.493 359.813 L265.67 359.885 L265.851 359.951 L266.034 360.012 L266.22 360.066 L266.22 362.201 L250.471 362.201 L250.471 360.066 L250.852 360.009 L251.192 359.927 L251.493 359.82 L251.754 359.689 L251.974 359.533 L252.155 359.352 L252.295 359.147 L252.395 358.918 L252.456 358.664 L252.476 358.385 L252.475 358.308 L252.472 358.232 L252.467 358.156 L252.46 358.082 L252.451 358.009 L252.441 357.937 L252.428 357.865 L252.414 357.795 L252.397 357.726 L252.379 357.657 L252.358 357.589 L252.336 357.521 L252.312 357.453 L252.285 357.386 L252.257 357.318 L252.227 357.25 L252.195 357.182 L252.161 357.114 L252.125 357.046 L252.088 356.978 L252.045 356.905 L251.994 356.822 L251.936 356.729 L251.87 356.626 L251.796 356.513 L251.715 356.39 L251.626 356.257 L251.529 356.114 L251.424 355.961 L251.311 355.798 L247.657 350.559 L244.261 354.73 L244.05 354.989 L243.855 355.232 L243.676 355.462 L243.514 355.677 L243.368 355.879 L243.239 356.065 L243.126 356.238 L243.03 356.397 L242.95 356.541 L242.887 356.671 L242.835 356.795 L242.788 356.923 L242.747 357.054 L242.711 357.188 L242.681 357.326 L242.656 357.466 L242.637 357.61 L242.623 357.757 L242.615 357.908 L242.612 358.061 L242.618 358.214 L242.635 358.363 L242.664 358.507 L242.705 358.646 L242.758 358.781 L242.822 358.911 L242.897 359.037 L242.985 359.158 L243.084 359.275 L243.194 359.387 L243.317 359.493 L243.454 359.59 L243.605 359.679 L243.769 359.76 L243.946 359.832 L244.137 359.896 L244.342 359.951 L244.56 359.998 L244.792 360.036 L245.038 360.066 L245.038 362.201 L232.587 362.201 L232.587 360.066 L232.865 360 L233.144 359.916 L233.423 359.816 L233.702 359.699 L233.982 359.565 L234.261 359.415 L234.542 359.247 L234.822 359.063 L235.103 358.862 L235.384 358.644 L235.672 358.406 L235.971 358.144 L236.282 357.86 L236.605 357.552 L236.941 357.221 L237.288 356.866 L237.647 356.488 L238.018 356.087 L238.401 355.663 L238.796 355.216 L245.555 347.551 L237.955 336.814 L237.815 336.611 L237.678 336.415 L237.546 336.227 L237.417 336.046 L237.292 335.873 L237.171 335.707 L237.054 335.548 L236.941 335.397 L236.832 335.253 L236.726 335.117 L236.623 334.985 L236.518 334.854 L236.413 334.725 L236.307 334.597 L236.201 334.47 L236.094 334.344 L235.986 334.22 L235.878 334.097 L235.769 333.976 L235.659 333.855 L235.55 333.738 L235.444 333.626 L235.339 333.52 L235.237 333.418 L235.138 333.322 L235.04 333.231 L234.945 333.145 L234.852 333.064 L234.761 332.988 L234.673 332.918 L234.586 332.852 L234.501 332.789 L234.417 332.731 L234.334 332.677 L234.252 332.626 L234.172 332.58 L234.093 332.537 L234.016 332.498 L233.939 332.464 L233.864 332.432 L233.79 332.404 L233.716 332.379 L233.643 332.355 L233.569 332.334 L233.496 332.315 L233.424 332.299 L233.352 332.284 L233.28 332.272 L233.208 332.262 L233.137 332.255 L233.137 330.12 L248.789 330.12 L248.789 332.255 L248.402 332.348 L248.055 332.462 L247.75 332.594 L247.485 332.746 L247.261 332.918 L247.078 333.108 L246.935 333.319 L246.833 333.548 L246.772 333.797 L246.752 334.066 L246.754 334.176 L246.763 334.287 L246.778 334.4 L246.798 334.513 L246.824 334.627 L246.856 334.743 L246.894 334.859 L246.938 334.976 L246.987 335.094 L247.043 335.214 L247.104 335.336 L247.173 335.465 L247.249 335.6 L247.332 335.741 L247.423 335.889 L247.52 336.042 L247.624 336.202 L247.736 336.368 L247.855 336.539 L247.98 336.717 L251.311 341.471 L254.61 337.364 L254.761 337.173 L254.902 336.988 L255.034 336.81 L255.156 336.637 L255.269 336.471 L255.373 336.311 L255.467 336.157 L255.552 336.009 L255.627 335.867 L255.693 335.731 L255.752 335.598 L255.804 335.464 L255.85 335.329 L255.89 335.193 L255.924 335.056 L255.951 334.918 L255.973 334.779 L255.988 334.639 L255.998 334.498 L256.001 334.357 L255.994 334.179 L255.974 334.008 L255.941 333.844 L255.895 333.687 L255.835 333.536 L255.762 333.392 L255.676 333.255 L255.576 333.125 L255.464 333.002 L255.338 332.885 L255.2 332.777 L255.054 332.679 L254.898 332.591 L254.732 332.513 L254.557 332.445 L254.373 332.387 L254.18 332.339 L253.977 332.301 L253.765 332.273 L253.543 332.255 L253.543 330.12 L265.864 330.12 L265.864 332.255 L265.575 332.332 L265.291 332.423 L265.011 332.528 L264.736 332.645 L264.465 332.776 L264.199 332.92 L263.938 333.077 L263.681 333.248 L263.428 333.432 L263.18 333.629 L262.923 333.851 L262.644 334.108 L262.344 334.402 L262.021 334.731 L261.676 335.096 L261.309 335.498 L260.921 335.935 L260.51 336.408 L260.077 336.916 L259.623 337.461 L253.413 344.479 Z " stroke="black" stroke-width="1" fill="none" />
<path d="M292.156 358.757 L291.592 359.237 L291.038 359.687 L290.495 360.109 L289.962 360.5 L289.44 360.863 L288.927 361.196 L288.425 361.499 L287.934 361.773 L287.453 362.018 L286.982 362.233 L286.513 362.424 L286.04 362.594 L285.561 362.745 L285.078 362.875 L284.589 362.985 L284.095 363.075 L283.595 363.146 L283.091 363.196 L282.581 363.226 L282.066 363.236 L281.127 363.209 L280.236 363.13 L279.395 362.999 L278.602 362.814 L277.858 362.577 L277.163 362.287 L276.517 361.944 L275.919 361.549 L275.37 361.101 L274.871 360.6 L274.419 360.043 L274.015 359.431 L273.658 358.766 L273.349 358.047 L273.088 357.273 L272.874 356.446 L272.708 355.564 L272.589 354.629 L272.517 353.64 L272.494 352.596 L272.494 334.26 L268.451 334.26 L268.451 332.028 L268.835 331.957 L269.199 331.879 L269.542 331.795 L269.864 331.705 L270.165 331.608 L270.446 331.504 L270.706 331.394 L270.945 331.278 L271.164 331.155 L271.362 331.026 L271.545 330.889 L271.72 330.742 L271.887 330.587 L272.045 330.423 L272.195 330.25 L272.336 330.067 L272.469 329.876 L272.593 329.675 L272.709 329.466 L272.817 329.247 L272.918 329.017 L273.016 328.774 L273.109 328.516 L273.197 328.246 L273.282 327.962 L273.362 327.664 L273.439 327.352 L273.51 327.027 L273.578 326.689 L273.642 326.336 L273.702 325.968 L273.759 325.582 L273.813 325.178 L273.864 324.756 L273.913 324.315 L273.958 323.857 L274.001 323.38 L274.04 322.885 L274.077 322.372 L274.111 321.841 L281.84 321.841 L281.84 330.12 L291.057 330.12 L291.057 334.26 L281.84 334.26 L281.84 349.103 L281.843 349.828 L281.853 350.513 L281.87 351.16 L281.894 351.768 L281.925 352.337 L281.962 352.868 L282.006 353.359 L282.057 353.812 L282.115 354.226 L282.179 354.601 L282.252 354.947 L282.334 355.275 L282.425 355.584 L282.526 355.874 L282.636 356.145 L282.756 356.398 L282.885 356.632 L283.023 356.847 L283.17 357.043 L283.327 357.221 L283.493 357.38 L283.666 357.523 L283.847 357.649 L284.036 357.759 L284.233 357.851 L284.437 357.927 L284.649 357.986 L284.869 358.028 L285.097 358.053 L285.332 358.061 L285.512 358.06 L285.687 358.055 L285.858 358.047 L286.026 358.036 L286.189 358.021 L286.349 358.003 L286.505 357.982 L286.657 357.958 L286.805 357.93 L286.949 357.9 L287.093 357.861 L287.237 357.818 L287.384 357.768 L287.532 357.713 L287.681 357.653 L287.832 357.587 L287.985 357.516 L288.14 357.439 L288.296 357.357 L288.453 357.269 L288.612 357.175 L288.773 357.073 L288.936 356.964 L289.1 356.847 L289.266 356.723 L289.433 356.592 L289.602 356.453 L289.773 356.307 L289.945 356.153 L290.119 355.992 L292.156 358.757 Z " stroke="black" stroke-width="1" fill="none" />


<path d="M540.529 220.165 L348.529 220.165 L348.529 316.165 L347.735 315.409 L346.904 314.691 L346.038 314.011 L345.143 313.372 L344.213 312.779 L343.253 312.227 L342.266 311.72 L341.254 311.263 L340.214 310.851 L339.152 310.492 L338.064 310.186 L336.956 309.929 L335.83 309.729 L334.685 309.581 L333.524 309.494 L332.345 309.464 L331.166 309.494 L330.006 309.581 L328.86 309.729 L327.734 309.929 L326.627 310.186 L325.538 310.492 L324.476 310.851 L323.437 311.263 L322.424 311.72 L321.437 312.227 L320.477 312.779 L319.548 313.372 L318.652 314.011 L317.911 314.593 L317.911 290.952 L308.13 290.952 L308.13 242.215 L276.907 242.215 L276.907 290.952 L249.789 290.952 L249.789 254.54 L218.566 254.54 L218.566 290.952 L202.953 290.952 L202.953 269.333 L171.73 269.333 L171.73 290.952 L88.9663 290.952 L87.7266 290.971 L86.4945 291.016 L85.2737 291.092 L84.0605 291.201 L82.851 291.337 L81.6567 291.507 L80.4699 291.704 L79.2945 291.927 L78.1266 292.184 L76.9701 292.464 L75.8249 292.774 L74.691 293.11 L73.5723 293.477 L72.4611 293.866 L71.365 294.282 L70.2841 294.724 L69.2107 295.196 L68.1562 295.691 L67.1131 296.209 L66.085 296.746 L65.0721 297.313 L64.0781 297.906 L63.0954 298.515 L62.1279 299.15 L61.1792 299.811 L60.2457 300.488 L59.331 301.191 L58.4353 301.913 L57.5546 302.657 L56.6929 303.424 L55.8501 304.207 L55.0261 305.012 L54.2211 305.836 L53.435 306.679 L52.6715 307.54 L51.9269 308.421 L51.205 309.32 L50.502 310.235 L49.8217 311.169 L49.1641 312.117 L48.5291 313.081 L47.9169 314.064 L47.3272 315.062 L46.7603 316.074 L46.2161 317.102 L45.6983 318.142 L45.2069 319.2 L44.7383 320.27 L44.2961 321.354 L43.8803 322.45 L43.4872 323.558 L43.1244 324.68 L42.788 325.814 L42.4781 326.959 L42.1946 328.112 L41.9414 329.28 L41.7146 330.456 L41.5181 331.642 L41.3518 332.84 L41.2157 334.046 L41.1061 335.259 L41.0306 336.484 L40.9814 337.716 L40.9663 338.952 L40.9814 340.192 L41.0306 341.424 L41.1061 342.648 L41.2157 343.862 L41.3518 345.067 L41.5181 346.265 L41.7146 347.452 L41.9414 348.627 L42.1946 349.795 L42.4781 350.948 L42.788 352.093 L43.1244 353.227 L43.4872 354.35 L43.8803 355.457 L44.2961 356.553 L44.7383 357.638 L45.2069 358.707 L45.6983 359.762 L46.2161 360.805 L46.7603 361.833 L47.3272 362.846 L47.9169 363.844 L48.5291 364.827 L49.1641 365.79 L49.8217 366.739 L50.502 367.673 L51.205 368.587 L51.9269 369.487 L52.6715 370.367 L53.435 371.229 L54.2211 372.072 L55.0261 372.896 L55.8501 373.701 L56.6929 374.483 L57.5546 375.25 L58.4353 375.991 L59.331 376.717 L60.2457 377.416 L61.1792 378.096 L62.1279 378.754 L63.0954 379.393 L64.0781 380.005 L65.0721 380.595 L66.085 381.162 L67.1131 381.702 L68.1562 382.22 L69.2107 382.715 L70.2841 383.18 L71.365 383.626 L72.4611 384.042 L73.5723 384.431 L74.691 384.794 L75.8249 385.134 L76.9701 385.444 L78.1266 385.724 L79.2945 385.977 L80.4699 386.204 L81.6567 386.4 L82.851 386.566 L84.0605 386.706 L85.2737 386.812 L86.4945 386.891 L87.7266 386.937 L88.9663 386.952 L317.911 386.952 L317.911 350.109 L318.652 350.691 L319.548 351.326 L320.477 351.923 L321.437 352.475 L322.424 352.982 L323.437 353.439 L324.476 353.847 L325.538 354.206 L326.627 354.516 L327.734 354.773 L328.86 354.973 L330.006 355.117 L331.166 355.208 L332.345 355.238 L333.524 355.208 L334.685 355.117 L335.83 354.973 L336.956 354.773 L338.064 354.516 L339.152 354.206 L340.214 353.847 L341.254 353.439 L342.266 352.982 L343.253 352.475 L344.213 351.923 L345.143 351.326 L346.038 350.691 L346.904 350.011 L347.735 349.293 L348.529 348.533 L348.529 412.165 L540.529 412.165 L540.529 220.165 Z " stroke="black" stroke-width="1" fill="none" />

<path d="M481.506 266.864 L481.506 358.893 L399.338 358.893 L399.338 266.864 L481.506 266.864 Z " stroke="black" stroke-width="1" fill="none" />

<circle cx="440.422" cy="312.878" r="31.3965" stroke="black" stroke-width="1" fill="none" />


<circle cx="440.422" cy="312.878" r="12" stroke="black" stroke-width="1" fill="none" />


</svg>
